<svg width="86" height="86" viewBox="0 0 86 86" fill="none" xmlns="http://www.w3.org/2000/svg">
<rect width="86" height="86" rx="43" fill="#272727"/>
<path d="M61.0817 35.8033L46.0817 24.0633C45.2025 23.3744 44.1178 23 43.0009 23C41.8839 23 40.7992 23.3744 39.92 24.0633L24.9183 35.8016C24.3193 36.2682 23.835 36.8657 23.5025 37.5483C23.17 38.231 22.9981 38.9806 23 39.7399V63.0016H40.145L43.985 53.0016H36.47L43.09 42.9299L41.0383 49.6683L49.63 49.6166L45.0067 63.0016H63V39.7399C63 38.1916 62.3 36.7566 61.0817 35.8033ZM59.6667 59.6683H49.685L52.8617 50.4666C53.0088 49.9884 53.0408 49.4821 52.9551 48.9891C52.8693 48.4962 52.6683 48.0304 52.3684 47.6299C52.0717 47.2267 51.684 46.8992 51.2368 46.6741C50.7896 46.4491 50.2956 46.3329 49.795 46.3349H45.5383L48.5834 36.3349H43.435L33.5317 51.4049C33.2143 51.8834 33.0327 52.4389 33.006 53.0124C32.9793 53.5859 33.1086 54.1559 33.3802 54.6617C33.6517 55.1675 34.0554 55.5903 34.5481 55.8849C35.0408 56.1796 35.6042 56.3351 36.1783 56.3349H39.135L37.855 59.6683H26.3333V39.7399C26.3333 39.2233 26.5667 38.7449 26.9733 38.4266L41.9734 26.6899C42.266 26.4596 42.6276 26.3344 43 26.3344C43.3724 26.3344 43.734 26.4596 44.0267 26.6899L59.0267 38.4299C59.4333 38.7466 59.6667 39.2266 59.6667 39.7416V59.6683Z" fill="#A2A2A2"/>
</svg>
