<svg width="86" height="86" viewBox="0 0 86 86" fill="none" xmlns="http://www.w3.org/2000/svg">
<rect width="86" height="86" rx="43" fill="#A2A2A2"/>
<path d="M62.2862 40.2299L58.7306 34.294L42.9878 39.5518L27.245 34.294L23.7211 40.1748C23.3309 40.823 23.0918 41.551 23.0217 42.3047C22.9515 43.0584 23.0522 43.8182 23.316 44.5274C23.8328 45.9287 24.9213 47.0127 26.3182 47.5221V57.4332L42.9878 63L59.6574 57.4332V47.5238C60.3517 47.2818 60.9836 46.8883 61.5077 46.3719C62.0318 45.8555 62.4349 45.2289 62.6879 44.5374C62.9487 43.8351 63.048 43.0829 62.9784 42.3369C62.9089 41.5908 62.6723 40.87 62.2862 40.2283V40.2299ZM26.5799 41.8951L28.7253 38.3109L40.489 42.2409L37.9336 46.5083C37.7393 46.8352 37.4392 47.0855 37.0831 47.2177C36.727 47.3499 36.3365 47.3559 35.9766 47.2348L27.5068 44.4072C27.2637 44.3259 27.0419 44.191 26.8578 44.0125C26.6737 43.8339 26.532 43.6162 26.443 43.3755C26.3541 43.1347 26.3202 42.877 26.3439 42.6214C26.3676 42.3658 26.4482 42.1187 26.5799 41.8985V41.8951ZM29.6521 48.6395L34.9214 50.3999C36.0005 50.7672 37.1728 50.7516 38.2417 50.3556C39.3107 49.9597 40.2113 49.2075 40.7924 48.2253L41.3208 47.3417V58.9263L29.6521 55.0281V48.6395ZM44.6548 58.9263V47.3417L45.1832 48.2253C45.7644 49.2075 46.6649 49.9597 47.7339 50.3556C48.8028 50.7516 49.9751 50.7672 51.0542 50.3999L56.3235 48.6412V55.0297L44.6548 58.928V58.9263ZM59.5607 43.3816C59.4749 43.6158 59.3377 43.8277 59.159 44.0014C58.9804 44.1752 58.765 44.3064 58.5289 44.3854L49.999 47.2332C49.6391 47.3552 49.2483 47.3497 48.892 47.2174C48.5357 47.0851 48.2356 46.8342 48.042 46.5066L45.4866 42.2392L57.2503 38.3092L59.429 41.9486C59.6891 42.3829 59.7391 42.904 59.5624 43.38L59.5607 43.3816ZM34.9247 33.3386L31.3891 32.1578L40.529 23L45.1115 27.5914L47.1102 25.5888L53.8964 32.3883L50.3608 33.5691L47.1102 30.3122L41.7976 35.6352L38.262 34.4543L42.7528 29.9548L40.5274 27.725L34.9231 33.3403L34.9247 33.3386Z" fill="#272727"/>
</svg>
