<svg width="86" height="86" viewBox="0 0 86 86" fill="none" xmlns="http://www.w3.org/2000/svg">
<rect width="86" height="86" rx="43" fill="#A2A2A2"/>
<g clip-path="url(#clip0_760_2047)">
<path d="M39.6667 46.3333V23H28C25.2433 23 23 25.2433 23 28V58C23 60.7567 25.2433 63 28 63H58C60.7567 63 63 60.7567 63 58V46.3333H39.6667ZM59.6667 58C59.6667 58.442 59.4911 58.866 59.1785 59.1785C58.866 59.4911 58.442 59.6667 58 59.6667H28C27.0817 59.6667 26.3333 58.92 26.3333 58V28C26.3333 27.08 27.0817 26.3333 28 26.3333H36.3333V33H31.3333V36.3333H36.3333V39.6667H31.3333V43H36.3333V46.3333H31.3333V49.6667H36.3333V54.6667H39.6667V49.6667H43V54.6667H46.3333V49.6667H49.6667V54.6667H53V49.6667H59.6667V58Z" fill="#272727"/>
</g>
<defs>
<clipPath id="clip0_760_2047">
<rect width="40" height="40" fill="white" transform="translate(23 23)"/>
</clipPath>
</defs>
</svg>
