<svg width="86" height="86" viewBox="0 0 86 86" fill="none" xmlns="http://www.w3.org/2000/svg">
<rect width="86" height="86" rx="43" fill="#A2A2A2"/>
<path d="M61.7015 32.5717L56.6832 25.7917C56.066 24.9289 55.2522 24.2256 54.309 23.7401C53.3659 23.2546 52.3206 23.0009 51.2598 23H34.7432C33.6876 22.999 32.6468 23.2487 31.7065 23.7285C30.7663 24.2084 29.9534 24.9046 29.3348 25.76L24.2265 32.5883C23.3948 33.7612 22.9652 35.1718 23.0022 36.6091C23.0392 38.0464 23.5406 39.4331 24.4315 40.5617L39.0848 61.1083C39.5518 61.6997 40.147 62.1772 40.8255 62.5049C41.504 62.8326 42.248 63.0019 43.0015 63C43.7679 62.9985 44.5237 62.8211 45.2108 62.4816C45.898 62.1421 46.498 61.6495 46.9648 61.0417L61.5015 40.7233C62.4323 39.5783 62.9569 38.1568 62.9931 36.6816C63.0293 35.2065 62.575 33.761 61.7015 32.5717ZM53.9882 27.7517L59.0182 34.5483C59.0448 34.585 59.0515 34.6283 59.0782 34.6667H50.9248L48.5448 26.3333H51.2598C51.7948 26.335 52.3215 26.4646 52.7962 26.7113C53.2708 26.9581 53.6795 27.3148 53.9882 27.7517ZM43.0015 54.8633L38.5015 38H47.5015L43.0015 54.8633ZM38.5448 34.6667L40.9248 26.3333H45.0782L47.4582 34.6667H38.5448ZM32.0298 27.7283C32.3391 27.2973 32.7464 26.946 33.2182 26.7035C33.69 26.4609 34.2127 26.334 34.7432 26.3333H37.4582L35.0782 34.6667H26.8648C26.8882 34.63 26.8948 34.585 26.9215 34.55L32.0298 27.7283ZM27.0815 38.5417C26.9612 38.3717 26.8579 38.1903 26.7732 38H35.0548L40.0448 56.7167L27.0815 38.5417ZM45.9532 56.7333L50.9532 38H59.2632C59.1558 38.2488 59.0199 38.4842 58.8582 38.7017L45.9532 56.7333Z" fill="#272727"/>
</svg>
