<svg width="15" height="20" viewBox="0 0 15 20" fill="none" xmlns="http://www.w3.org/2000/svg">
<path d="M7.48039 11.4559C6.60835 11.457 5.76291 11.1581 5.08804 10.6103C4.41316 10.0624 3.95059 9.29946 3.77909 8.45131C3.76542 8.36197 3.77149 8.27075 3.79689 8.18396C3.82229 8.09718 3.8664 8.01692 3.92618 7.94873C3.98595 7.88054 4.05996 7.82605 4.14307 7.78905C4.22618 7.75205 4.3164 7.73342 4.40749 7.73444C4.5572 7.73228 4.70276 7.78322 4.81797 7.87807C4.93318 7.97293 5.01046 8.10547 5.0359 8.25183C5.15425 8.81219 5.46338 9.31507 5.91138 9.67602C6.35938 10.037 6.91895 10.234 7.4961 10.234C8.07325 10.234 8.63282 10.037 9.08082 9.67602C9.52882 9.31507 9.83796 8.81219 9.95631 8.25183C9.98174 8.10547 10.059 7.97293 10.1742 7.87807C10.2894 7.78322 10.435 7.73228 10.5847 7.73444C10.6758 7.73342 10.766 7.75205 10.8491 7.78905C10.9322 7.82605 11.0063 7.88054 11.066 7.94873C11.1258 8.01692 11.1699 8.09718 11.1953 8.18396C11.2207 8.27075 11.2268 8.36197 11.2131 8.45131C11.0406 9.30474 10.5734 10.0718 9.89204 10.6202C9.21068 11.1687 8.35781 11.4642 7.48039 11.4559Z" fill="white"/>
<path d="M13.0732 19.6718H1.88757C1.63187 19.6721 1.37877 19.6209 1.14368 19.5211C0.908583 19.4213 0.696408 19.2751 0.520059 19.0915C0.343711 18.9078 0.206875 18.6904 0.117875 18.4526C0.0288754 18.2148 -0.0104273 17.9616 0.00235817 17.7082L0.511366 6.96142C0.532432 6.47962 0.740315 6.02452 1.0916 5.69115C1.44289 5.35778 1.91043 5.17191 2.39658 5.17236H12.5642C13.0503 5.17191 13.5179 5.35778 13.8691 5.69115C14.2204 6.02452 14.4283 6.47962 14.4494 6.96142L14.9584 17.7082C14.9712 17.9616 14.9319 18.2148 14.8429 18.4526C14.7539 18.6904 14.617 18.9078 14.4407 19.0915C14.2643 19.2751 14.0522 19.4213 13.8171 19.5211C13.582 19.6209 13.3289 19.6721 13.0732 19.6718ZM2.39658 6.42533C2.22992 6.42533 2.07008 6.491 1.95223 6.60791C1.83438 6.72481 1.76818 6.88337 1.76818 7.04869L1.25917 17.7706C1.25491 17.855 1.26801 17.9394 1.29767 18.0187C1.32734 18.098 1.37295 18.1704 1.43173 18.2316C1.49052 18.2929 1.56124 18.3416 1.63961 18.3748C1.71797 18.4081 1.80234 18.4252 1.88757 18.4251H13.0732C13.1584 18.4252 13.2428 18.4081 13.3211 18.3748C13.3995 18.3416 13.4702 18.2929 13.529 18.2316C13.5878 18.1704 13.6334 18.098 13.6631 18.0187C13.6927 17.9394 13.7058 17.855 13.7016 17.7706L13.1926 7.02376C13.1926 6.85843 13.1264 6.69988 13.0085 6.58297C12.8907 6.46607 12.7308 6.40039 12.5642 6.40039L2.39658 6.42533Z" fill="white"/>
<path d="M11.2508 5.80178H9.99401V4.71089C9.99401 4.04958 9.72918 3.41536 9.25779 2.94775C8.78639 2.48014 8.14704 2.21743 7.48039 2.21743C6.81374 2.21743 6.17439 2.48014 5.70299 2.94775C5.2316 3.41536 4.96677 4.04958 4.96677 4.71089V5.80178H3.70996V4.71089C3.70996 3.71893 4.1072 2.7676 4.81429 2.06618C5.52139 1.36476 6.48041 0.970703 7.48039 0.970703C8.48037 0.970703 9.43939 1.36476 10.1465 2.06618C10.8536 2.7676 11.2508 3.71893 11.2508 4.71089V5.80178Z" fill="white"/>
</svg>
