<svg width="26" height="26" viewBox="0 0 26 26" fill="none" xmlns="http://www.w3.org/2000/svg">
<rect width="26" height="26" rx="13" fill="#FF6464" fill-opacity="0.2"/>
<path d="M18.3996 9.40066H15.3998V8.39873C15.3858 8.01465 15.22 7.65182 14.9388 7.38978C14.6577 7.12773 14.2841 6.98786 13.9 7.00083H12.1001C11.716 6.98786 11.3424 7.12773 11.0612 7.38978C10.78 7.65182 10.6143 8.01465 10.6002 8.39873V9.40066H7.60039C7.44127 9.40066 7.28867 9.46387 7.17615 9.57639C7.06364 9.6889 7.00043 9.8415 7.00043 10.0006C7.00043 10.1597 7.06364 10.3123 7.17615 10.4249C7.28867 10.5374 7.44127 10.6006 7.60039 10.6006H8.20034V17.2001C8.20034 17.6775 8.38997 18.1353 8.72752 18.4728C9.06506 18.8104 9.52286 19 10.0002 19H15.9998C16.4772 19 16.935 18.8104 17.2725 18.4728C17.6101 18.1353 17.7997 17.6775 17.7997 17.2001V10.6006H18.3996C18.5588 10.6006 18.7114 10.5374 18.8239 10.4249C18.9364 10.3123 18.9996 10.1597 18.9996 10.0006C18.9996 9.8415 18.9364 9.6889 18.8239 9.57639C18.7114 9.46387 18.5588 9.40066 18.3996 9.40066ZM11.8001 8.39873C11.8001 8.30274 11.9261 8.20074 12.1001 8.20074H13.9C14.0739 8.20074 14.1999 8.30274 14.1999 8.39873V9.40066H11.8001V8.39873ZM16.5998 17.2001C16.5998 17.3592 16.5366 17.5118 16.424 17.6244C16.3115 17.7369 16.1589 17.8001 15.9998 17.8001H10.0002C9.8411 17.8001 9.6885 17.7369 9.57599 17.6244C9.46347 17.5118 9.40026 17.3592 9.40026 17.2001V10.6006H16.5998V17.2001Z" fill="#FF6464"/>
<path d="M11.2001 16.0001C11.3592 16.0001 11.5118 15.9369 11.6244 15.8244C11.7369 15.7119 11.8001 15.5593 11.8001 15.4002V13.0003C11.8001 12.8412 11.7369 12.6886 11.6244 12.5761C11.5118 12.4636 11.3592 12.4004 11.2001 12.4004C11.041 12.4004 10.8884 12.4636 10.7759 12.5761C10.6634 12.6886 10.6002 12.8412 10.6002 13.0003V15.4002C10.6002 15.5593 10.6634 15.7119 10.7759 15.8244C10.8884 15.9369 11.041 16.0001 11.2001 16.0001ZM14.7999 16.0001C14.959 16.0001 15.1116 15.9369 15.2241 15.8244C15.3366 15.7119 15.3998 15.5593 15.3998 15.4002V13.0003C15.3998 12.8412 15.3366 12.6886 15.2241 12.5761C15.1116 12.4636 14.959 12.4004 14.7999 12.4004C14.6407 12.4004 14.4881 12.4636 14.3756 12.5761C14.2631 12.6886 14.1999 12.8412 14.1999 13.0003V15.4002C14.1999 15.5593 14.2631 15.7119 14.3756 15.8244C14.4881 15.9369 14.6407 16.0001 14.7999 16.0001Z" fill="#FF6464"/>
</svg>
