<svg width="27" height="27" viewBox="0 0 27 27" fill="none" xmlns="http://www.w3.org/2000/svg">
<rect x="0.264648" y="0.5" width="26" height="26" rx="13" fill="#FF6464" fill-opacity="0.2"/>
<path d="M18.6639 9.90066H15.6641V8.89873C15.65 8.51465 15.4842 8.15182 15.203 7.88978C14.9219 7.62773 14.5483 7.48786 14.1642 7.50083H12.3643C11.9802 7.48786 11.6066 7.62773 11.3254 7.88978C11.0443 8.15182 10.8785 8.51465 10.8644 8.89873V9.90066H7.86461C7.70549 9.90066 7.55289 9.96387 7.44037 10.0764C7.32786 10.1889 7.26465 10.3415 7.26465 10.5006C7.26465 10.6597 7.32786 10.8123 7.44037 10.9249C7.55289 11.0374 7.70549 11.1006 7.86461 11.1006H8.46457V17.7001C8.46457 18.1775 8.65419 18.6353 8.99174 18.9728C9.32928 19.3104 9.78708 19.5 10.2644 19.5H16.264C16.7414 19.5 17.1992 19.3104 17.5367 18.9728C17.8743 18.6353 18.0639 18.1775 18.0639 17.7001V11.1006H18.6639C18.823 11.1006 18.9756 11.0374 19.0881 10.9249C19.2006 10.8123 19.2638 10.6597 19.2638 10.5006C19.2638 10.3415 19.2006 10.1889 19.0881 10.0764C18.9756 9.96387 18.823 9.90066 18.6639 9.90066ZM12.0643 8.89873C12.0643 8.80274 12.1903 8.70074 12.3643 8.70074H14.1642C14.3382 8.70074 14.4642 8.80274 14.4642 8.89873V9.90066H12.0643V8.89873ZM16.864 17.7001C16.864 17.8592 16.8008 18.0118 16.6883 18.1244C16.5757 18.2369 16.4231 18.3001 16.264 18.3001H10.2644C10.1053 18.3001 9.95272 18.2369 9.84021 18.1244C9.72769 18.0118 9.66448 17.8592 9.66448 17.7001V11.1006H16.864V17.7001Z" fill="#FF6464"/>
<path d="M11.4642 16.5001C11.6233 16.5001 11.7759 16.4369 11.8885 16.3244C12.001 16.2119 12.0642 16.0593 12.0642 15.9002V13.5003C12.0642 13.3412 12.001 13.1886 11.8885 13.0761C11.7759 12.9636 11.6233 12.9004 11.4642 12.9004C11.3051 12.9004 11.1525 12.9636 11.04 13.0761C10.9275 13.1886 10.8643 13.3412 10.8643 13.5003V15.9002C10.8643 16.0593 10.9275 16.2119 11.04 16.3244C11.1525 16.4369 11.3051 16.5001 11.4642 16.5001ZM15.064 16.5001C15.2231 16.5001 15.3757 16.4369 15.4882 16.3244C15.6007 16.2119 15.6639 16.0593 15.6639 15.9002V13.5003C15.6639 13.3412 15.6007 13.1886 15.4882 13.0761C15.3757 12.9636 15.2231 12.9004 15.064 12.9004C14.9048 12.9004 14.7522 12.9636 14.6397 13.0761C14.5272 13.1886 14.464 13.3412 14.464 13.5003V15.9002C14.464 16.0593 14.5272 16.2119 14.6397 16.3244C14.7522 16.4369 14.9048 16.5001 15.064 16.5001Z" fill="#FF6464"/>
</svg>
