<svg width="41" height="44" viewBox="0 0 41 44" fill="none" xmlns="http://www.w3.org/2000/svg">
<path d="M26.5117 44C26.3398 44 26.168 43.9656 26.0047 43.9055C22.2406 42.943 19.0953 41.0266 16.6547 38.1992C14.1797 35.3375 12.925 31.8227 12.925 27.7492C12.925 25.8414 13.6383 24.2172 15.0305 22.9195C16.4141 21.6391 18.0812 20.9945 19.9977 20.9945C21.9141 20.9945 23.5812 21.6477 24.9648 22.9195C26.3656 24.2172 27.0703 25.8414 27.0703 27.7492C27.0703 28.8234 27.4828 29.7 28.3164 30.4477C29.1414 31.1953 30.2156 31.6078 31.3328 31.5906C32.4414 31.5906 33.3953 31.2211 34.2289 30.4562C35.0453 29.7172 35.432 28.832 35.432 27.7492C35.432 23.6586 33.9539 20.3242 30.9031 17.557C27.8695 14.807 24.2 13.4148 19.9891 13.4148C15.7781 13.4148 12.1086 14.807 9.075 17.557C6.03281 20.3242 4.54609 23.6586 4.54609 27.7492C4.54609 28.5484 4.64062 29.6141 4.82969 30.9203C5.01016 32.2008 5.41406 33.6875 6.01562 35.3375C6.27344 35.982 6.04141 36.4203 5.87813 36.6266C5.74062 36.7898 5.58594 36.9359 5.40547 37.0563L5.35391 37.0906L5.30234 37.1164C5.0875 37.2281 4.84687 37.2797 4.60625 37.2797C4.48594 37.2797 4.37422 37.2625 4.25391 37.2367C3.79844 37.1336 3.42891 36.807 3.26562 36.3773L3.25703 36.3602L3.24844 36.3344C2.77578 34.9594 2.40625 33.55 2.13125 32.1234C1.85625 30.6883 1.71875 29.2273 1.71875 27.7578C1.71875 22.9797 3.55781 18.8461 7.17578 15.4688C10.7766 12.1086 15.082 10.3984 19.9719 10.3984C24.9648 10.3984 29.3133 12.0742 32.8969 15.3828C36.5062 18.7086 38.3281 22.8766 38.3281 27.7578C38.3281 29.6313 37.632 31.2297 36.2484 32.5273C34.882 33.8078 33.2234 34.4609 31.307 34.4609C29.3562 34.4609 27.6633 33.8164 26.2625 32.5359C24.8445 31.2383 24.1227 29.6313 24.1227 27.7578C24.1227 26.6406 23.7273 25.7383 22.9195 24.9992C22.1203 24.2516 21.0633 23.8477 19.9719 23.8648C18.8719 23.8477 17.8062 24.2516 16.9984 25.0078C16.1734 25.7469 15.7695 26.6492 15.7695 27.7578C15.7695 31.1609 16.8094 34.0398 18.8547 36.3C20.943 38.6117 23.5898 40.2531 26.718 41.1813L26.7438 41.1898C27.1906 41.3359 27.5 41.5766 27.6633 41.9117C27.9641 42.582 27.7578 43.3727 27.1734 43.8109C26.993 43.9312 26.7523 44 26.5117 44ZM15.0648 43.5703C14.6695 43.5617 14.2914 43.3813 14.0508 43.0633C11.9711 40.9062 10.3211 38.6031 9.14375 36.2141C7.94062 33.782 7.33906 30.9289 7.33906 27.7492C7.33906 24.3719 8.60234 21.4844 11.0859 19.1727C13.5523 16.8781 16.5516 15.7094 20.0063 15.7094C23.4609 15.7094 26.4773 16.8695 28.9781 19.1641C31.5047 21.4758 32.7766 24.3633 32.7766 27.7406C32.8195 28.4969 32.2352 29.1328 31.4875 29.1758H31.3414C30.9805 29.1844 30.6195 29.0641 30.3359 28.832C30.018 28.557 29.8375 28.1617 29.8547 27.7406C29.8547 25.1367 28.9094 23.0055 26.9586 21.2437C24.982 19.4477 22.7133 18.5797 19.9977 18.5797C17.282 18.5797 15.0305 19.4477 13.0969 21.2437C11.1805 23.0141 10.2523 25.1453 10.2523 27.7492C10.2523 30.5852 10.7422 33.0258 11.7133 34.9938C12.7016 37.0047 14.1969 39.0586 16.1648 41.0867C16.5945 41.525 16.6375 41.9547 16.6031 42.2469C16.5516 42.5734 16.3969 42.8742 16.1648 43.1063C15.9672 43.2953 15.7266 43.4328 15.4688 43.5102C15.3313 43.5531 15.1938 43.5703 15.0648 43.5703ZM30.8602 39.5141C27.5516 39.5141 24.6383 38.3969 22.2062 36.1969C19.7484 33.9711 18.5109 31.1266 18.5109 27.7492C18.5023 27.3883 18.6227 27.0273 18.8547 26.7438C19.4047 26.1422 20.3328 26.0992 20.9344 26.6406L21.0375 26.7438C21.2695 27.0273 21.3898 27.3797 21.3812 27.7492C21.3812 30.3445 22.3094 32.4328 24.2086 34.1086C26.1508 35.8187 28.325 36.6523 30.8602 36.6523C31.1094 36.6523 31.4187 36.6352 31.7797 36.6008C32.1406 36.5664 32.5445 36.5148 32.9742 36.4547C33.0688 36.4375 33.1719 36.4289 33.275 36.4289C33.5844 36.4289 33.8937 36.532 34.1344 36.7297C34.3578 36.9102 34.5297 37.1594 34.6242 37.4258L34.6328 37.4602L34.6414 37.4945C34.7273 37.8297 34.7016 38.182 34.5469 38.4914C34.4437 38.6977 34.1859 39.05 33.6102 39.1789C33.0086 39.3508 32.3898 39.4625 31.7711 39.4969C31.1094 39.5141 30.9375 39.5141 30.8602 39.5141ZM1.39219 17.4969C1.16016 17.4969 0.928125 17.4367 0.713281 17.3336C0.275 17.1187 0 16.6719 0 16.182C0 15.8898 0.0687499 15.5977 0.197656 15.3312L0.232031 15.2625L0.275 15.2023C2.50078 12.1 5.45703 9.59062 8.88594 7.90625C12.3406 6.19609 16.1391 5.31953 19.9891 5.33672C23.8391 5.31953 27.6461 6.17891 31.118 7.84609C34.5727 9.50469 37.5633 11.9883 39.8148 15.0906L39.8406 15.125L39.8578 15.1594C40.0812 15.5289 40.1586 15.8641 40.107 16.1992C40.0469 16.5086 39.9008 16.7922 39.6688 17.007C39.3937 17.282 39.0242 17.4367 38.6289 17.4281C38.3195 17.4281 37.8727 17.325 37.4688 16.8266L37.4516 16.8094L37.4344 16.7922C35.4836 14.068 32.8711 11.8766 29.8375 10.4328C26.7609 8.95469 23.3922 8.18984 19.9719 8.19844C16.5086 8.19844 13.2172 8.95469 10.1922 10.45C7.19297 11.9281 4.58906 14.1023 2.6125 16.7922L2.60391 16.8094L2.59531 16.818C2.32891 17.1445 2.05391 17.3508 1.74453 17.4367C1.64141 17.4711 1.5125 17.4883 1.39219 17.4969ZM7.40781 6.04141C7.19297 6.04141 6.98672 5.98984 6.80625 5.87813C6.61719 5.75781 6.45391 5.61172 6.325 5.42266C6.11875 5.17344 6.01562 4.86406 6.02422 4.54609C6.01562 4.11641 6.23047 3.7125 6.58281 3.47188L6.61719 3.44609L6.65156 3.42891C8.70547 2.31172 10.8969 1.45234 13.1656 0.867969C15.3914 0.300781 17.6945 0 19.9977 0C22.3438 0 24.6727 0.292188 26.95 0.867969C29.1844 1.43516 31.35 2.25156 33.4125 3.3C33.868 3.49766 34.1602 3.86719 34.2203 4.33125C34.2719 4.675 34.1859 5.02734 33.9969 5.31953C33.8422 5.54297 33.6445 5.73203 33.4039 5.86953C33.2062 5.98125 32.9828 6.04141 32.7508 6.04141C32.5531 6.04141 32.3555 5.99844 32.1664 5.92109L32.132 5.90391L32.0977 5.88672C30.2156 4.96719 28.2391 4.23672 26.2023 3.7125C24.1742 3.18828 22.0859 2.92188 19.9977 2.92188C17.918 2.92188 15.8555 3.1625 13.8359 3.66094C11.8336 4.15078 9.9 4.89844 8.08672 5.87813L8.04375 5.90391L7.99219 5.92109C7.80312 5.98984 7.60547 6.03281 7.40781 6.04141Z" fill="#A2A2A2"/>
</svg>
