<svg width="44" height="44" viewBox="0 0 44 44" fill="none" xmlns="http://www.w3.org/2000/svg">
<g clip-path="url(#clip0_728_725)">
<path d="M8.93506 10.7587C9.18686 11.0104 9.51686 11.1359 9.84686 11.1359C10.1769 11.1359 10.5069 11.0104 10.7587 10.7587C11.2622 10.2551 11.2622 9.43951 10.7587 8.93592L8.26732 6.44459C7.76373 5.941 6.94732 5.941 6.44459 6.44459C5.941 6.94818 5.941 7.76373 6.44459 8.26732L8.93592 10.7587H8.93506Z" fill="#A2A2A2"/>
<path d="M6.10156 22C6.10156 21.2884 5.52406 20.7109 4.8125 20.7109H1.28906C0.5775 20.7109 0 21.2884 0 22C0 22.7116 0.5775 23.2891 1.28906 23.2891H4.8125C5.52406 23.2891 6.10156 22.7116 6.10156 22Z" fill="#A2A2A2"/>
<path d="M34.1534 11.1359C34.4834 11.1359 34.8134 11.0104 35.0652 10.7587L37.5565 8.26732C38.0601 7.76373 38.0601 6.94818 37.5565 6.44459C37.0529 5.941 36.2365 5.941 35.7338 6.44459L33.2424 8.93592C32.7388 9.43951 32.7388 10.2551 33.2424 10.7587C33.4942 11.0104 33.8242 11.1359 34.1542 11.1359H34.1534Z" fill="#A2A2A2"/>
<path d="M22 6.10156C22.7116 6.10156 23.2891 5.52406 23.2891 4.8125V1.28906C23.2891 0.5775 22.7116 0 22 0C21.2884 0 20.7109 0.5775 20.7109 1.28906V4.8125C20.7109 5.52406 21.2884 6.10156 22 6.10156Z" fill="#A2A2A2"/>
<path d="M35.0652 33.2415C34.5616 32.7379 33.7452 32.7379 33.2424 33.2415C32.7388 33.7451 32.7388 34.5606 33.2424 35.0642L35.7338 37.5555C35.9856 37.8073 36.3156 37.9328 36.6456 37.9328C36.9756 37.9328 37.3056 37.8073 37.5574 37.5555C38.061 37.0519 38.061 36.2355 37.5574 35.7328L35.066 33.2415H35.0652Z" fill="#A2A2A2"/>
<path d="M38.3728 27.3866L34.7428 25.8827C35.1183 24.6538 35.3203 23.3501 35.3203 22.0001C35.3203 20.65 35.1174 19.3463 34.7428 18.1174L38.3728 16.6135C39.0302 16.3411 39.343 15.5874 39.0706 14.9291C38.7981 14.2717 38.0445 13.9589 37.3862 14.2313L33.7528 15.7361C32.5075 13.4089 30.5911 11.4925 28.2631 10.2464L29.7678 6.61295C30.0403 5.95553 29.7283 5.201 29.07 4.92858C28.4126 4.65616 27.6581 4.96811 27.3857 5.62639L25.8817 9.25639C24.6528 8.88084 23.3492 8.67889 21.9991 8.67889C20.649 8.67889 19.3453 8.8817 18.1164 9.25639L16.6125 5.62639C16.3401 4.96897 15.5864 4.65616 14.9281 4.92858C14.2707 5.201 13.9579 5.95467 14.2303 6.61295L15.7351 10.2464C13.4079 11.4916 11.4915 13.408 10.2454 15.7361L6.61198 14.2313C5.95455 13.9589 5.20002 14.2708 4.9276 14.9291C4.65518 15.5865 4.96713 16.3411 5.62541 16.6135L9.25541 18.1174C8.87987 19.3463 8.67791 20.65 8.67791 22.0001C8.67791 23.3501 8.88073 24.6538 9.25541 25.8827L5.62541 27.3866C4.96799 27.659 4.65518 28.4127 4.9276 29.071C5.13299 29.5677 5.61338 29.8668 6.11869 29.8668C6.28284 29.8668 6.45041 29.835 6.61112 29.768L10.2446 28.2632C11.4898 30.5904 13.4062 32.5068 15.7342 33.7529L14.2295 37.3863C13.9571 38.0437 14.269 38.7983 14.9273 39.0707C15.0889 39.1377 15.2556 39.1695 15.4197 39.1695C15.9259 39.1695 16.4054 38.8696 16.6108 38.3737L18.1147 34.7437C19.3436 35.1193 20.6473 35.3212 21.9974 35.3212C23.3474 35.3212 24.6511 35.1184 25.88 34.7437L27.3839 38.3737C27.5893 38.8705 28.0697 39.1695 28.575 39.1695C28.7392 39.1695 28.9067 39.1377 29.0674 39.0707C29.7249 38.7983 30.0377 38.0446 29.7653 37.3863L28.2605 33.7529C30.5877 32.5076 32.5041 30.5912 33.7502 28.2632L37.3836 29.768C37.5452 29.835 37.7119 29.8668 37.876 29.8668C38.3822 29.8668 38.8617 29.5669 39.0671 29.071C39.3396 28.4136 39.0276 27.659 38.3693 27.3866H38.3728ZM21.9999 32.7423C16.0763 32.7423 11.2578 27.9237 11.2578 22.0001C11.2578 16.0764 16.0763 11.2579 21.9999 11.2579C27.9236 11.2579 32.7421 16.0764 32.7421 22.0001C32.7421 27.9237 27.9236 32.7423 21.9999 32.7423Z" fill="#A2A2A2"/>
<path d="M42.7109 20.7109H39.1875C38.4759 20.7109 37.8984 21.2884 37.8984 22C37.8984 22.7116 38.4759 23.2891 39.1875 23.2891H42.7109C43.4225 23.2891 44 22.7116 44 22C44 21.2884 43.4225 20.7109 42.7109 20.7109Z" fill="#A2A2A2"/>
<path d="M8.93494 33.2415L6.44361 35.7328C5.94002 36.2364 5.94002 37.0519 6.44361 37.5555C6.69541 37.8073 7.02541 37.9328 7.35541 37.9328C7.68541 37.9328 8.01541 37.8073 8.26721 37.5555L10.7585 35.0642C11.2621 34.5606 11.2621 33.7442 10.7585 33.2415C10.2549 32.7379 9.43854 32.7379 8.9358 33.2415H8.93494Z" fill="#A2A2A2"/>
<path d="M22 37.8984C21.2884 37.8984 20.7109 38.4759 20.7109 39.1875V42.7109C20.7109 43.4225 21.2884 44 22 44C22.7116 44 23.2891 43.4225 23.2891 42.7109V39.1875C23.2891 38.4759 22.7116 37.8984 22 37.8984Z" fill="#A2A2A2"/>
</g>
<defs>
<clipPath id="clip0_728_725">
<rect width="44" height="44" fill="white"/>
</clipPath>
</defs>
</svg>
