<svg width="32" height="44" viewBox="0 0 32 44" fill="none" xmlns="http://www.w3.org/2000/svg">
<path d="M19.9032 4.85101C18.8871 3.35677 17.9906 1.98208 17.1538 0.72692C17.0343 0.547612 16.855 0.368304 16.6757 0.248765C15.9584 -0.229391 15.0021 0.00968696 14.524 0.72692C13.747 1.98208 12.8504 3.297 11.7746 4.85101C7.05279 11.7843 0 22.2439 0 28.2209C0 32.584 1.79308 36.5288 4.66201 39.3977C7.53095 42.2069 11.4757 44 15.8389 44C20.2021 44 24.1468 42.2069 27.0158 39.338C29.8847 36.469 31.6778 32.5243 31.6778 28.1611C31.6778 22.1841 24.625 11.7843 19.9032 4.85101ZM24.8641 37.1863C22.5331 39.5173 19.3653 40.892 15.8389 40.892C12.3125 40.892 9.14472 39.4575 6.81371 37.1863C4.48271 34.8553 3.10801 31.6875 3.10801 28.1611C3.10801 23.1405 9.86195 13.159 14.3447 6.52455C14.8826 5.74755 15.3607 4.97055 15.8389 4.31309C16.317 4.97055 16.7952 5.74755 17.3331 6.52455C21.8158 13.2187 28.5698 23.1405 28.5698 28.1611C28.5698 31.6875 27.1353 34.8553 24.8641 37.1863Z" fill="#A2A2A2"/>
<path d="M25.1031 27.0853C24.2664 27.0255 23.5491 27.683 23.4894 28.5198C23.4296 29.8347 23.0112 31.0899 22.3537 32.1657C21.6963 33.2416 20.74 34.1979 19.6044 34.7956C18.8871 35.214 18.5883 36.1703 19.0067 36.8875C19.4848 37.7243 20.4411 37.9634 21.1584 37.545C22.7721 36.6484 24.0871 35.3335 24.9836 33.8393C25.9399 32.345 26.4778 30.5519 26.5376 28.6991C26.5974 27.8623 25.9399 27.1451 25.1031 27.0853Z" fill="#A2A2A2"/>
</svg>
