<svg width="44" height="44" viewBox="0 0 44 44" fill="none" xmlns="http://www.w3.org/2000/svg">
<path d="M42.0618 6.80888C41.4508 6.29069 40.7343 5.91173 39.9622 5.69835C39.19 5.48496 38.3806 5.44226 37.5903 5.57321C37.2072 5.63522 36.8326 5.74102 36.4738 5.88855C36.1555 4.72473 35.464 3.69753 34.5056 2.96462C33.5471 2.23171 32.3746 1.83359 31.1681 1.83138C30.1873 1.83138 29.2669 2.08988 28.4694 2.54271C27.9726 1.76359 27.2877 1.1221 26.4777 0.677377C25.6677 0.232659 24.7588 -0.000965708 23.8348 -0.00195312C22.6278 -0.000446041 21.4548 0.397371 20.4959 1.13036C19.537 1.86335 18.8454 2.89094 18.5273 4.05521C18.1681 3.90817 17.7936 3.80178 17.4108 3.73805C16.6204 3.60747 15.8111 3.65035 15.039 3.86372C14.2669 4.07709 13.5504 4.45584 12.9393 4.97371C12.3312 5.4896 11.8429 6.13177 11.5082 6.85554C11.1736 7.57932 11.0006 8.36732 11.0014 9.16471V25.111L9.24875 23.4739C8.18274 22.4827 6.76747 21.9541 5.3127 22.004C3.85792 22.0538 2.48212 22.6779 1.48642 23.7397C0.493863 24.8021 -0.0381455 26.214 0.0065061 27.6673C0.0511577 29.1205 0.668844 30.4971 1.72475 31.4965L7.76375 37.3192C12.1987 41.6129 18.133 44.0082 24.3059 43.9962H27.5014C36.5984 43.9962 44.0014 36.5932 44.0014 27.4962V10.9999C44.0014 9.38471 43.2938 7.85755 42.0618 6.80888ZM40.3329 27.4999C40.3329 34.5765 34.5763 40.3332 27.4996 40.3332H24.3041C19.0811 40.3432 14.0599 38.3169 10.3066 34.6847L4.24925 28.8437C3.89309 28.5126 3.68305 28.0535 3.66535 27.5676C3.64764 27.0816 3.82371 26.6085 4.15484 26.2523C4.48596 25.8961 4.94501 25.6861 5.43099 25.6684C5.91698 25.6507 6.39009 25.8268 6.74625 26.1579L11.5826 30.6734C11.8443 30.9158 12.1709 31.0769 12.5226 31.1368C12.8742 31.1967 13.2357 31.1529 13.5629 31.0108C13.8901 30.8687 14.1689 30.6344 14.3651 30.3365C14.5614 30.0386 14.6667 29.6899 14.6681 29.3332V9.16655C14.6681 8.62755 14.9028 8.11788 15.3153 7.76955C15.7333 7.41571 16.2668 7.27088 16.8241 7.35888C17.6711 7.49821 18.3366 8.37821 18.3366 9.36271V18.3332C18.3366 18.8194 18.5297 19.2858 18.8736 19.6296C19.2174 19.9734 19.6837 20.1665 20.1699 20.1665C20.6562 20.1665 21.1225 19.9734 21.4663 19.6296C21.8101 19.2858 22.0033 18.8194 22.0033 18.3332V5.49988C22.0033 4.48971 22.8264 3.66655 23.8366 3.66655C24.8468 3.66655 25.6699 4.48971 25.6699 5.49988V18.3332C25.6699 18.8194 25.8631 19.2858 26.2069 19.6296C26.5507 19.9734 27.017 20.1665 27.5033 20.1665C27.9895 20.1665 28.4558 19.9734 28.7996 19.6296C29.1434 19.2858 29.3366 18.8194 29.3366 18.3332V7.33321C29.3366 6.32305 30.1598 5.49988 31.1699 5.49988C32.1801 5.49988 33.0033 6.32305 33.0033 7.33321V18.3332C33.0033 18.8194 33.1964 19.2858 33.5402 19.6296C33.884 19.9734 34.3504 20.1665 34.8366 20.1665C35.3228 20.1665 35.7891 19.9734 36.1329 19.6296C36.4768 19.2858 36.6699 18.8194 36.6699 18.3332V11.196C36.6699 10.2097 37.3336 9.32971 38.1824 9.19221C38.7379 9.10605 39.2733 9.24721 39.6913 9.60288C40.1019 9.95121 40.3384 10.4609 40.3384 10.9999V27.4999H40.3329Z" fill="#A2A2A2"/>
</svg>
