<svg width="44" height="44" viewBox="0 0 44 44" fill="none" xmlns="http://www.w3.org/2000/svg">
<path d="M41.3797 24.1422C41.33 24.1736 36.3433 27.2869 30.3566 27.2869C24.3699 27.2869 19.3832 24.1736 19.336 24.1439C18.5422 23.6372 17.4876 23.8701 16.981 24.664C16.4743 25.4581 16.7072 26.5125 17.5013 27.0191C17.7365 27.1693 23.3462 30.6977 30.3566 30.6977C37.367 30.6977 42.9767 27.1693 43.212 27.0191C44.005 26.513 44.2371 25.4613 43.7325 24.6674C43.2279 23.8736 42.1743 23.6392 41.3797 24.1422ZM42.2946 36.8373C43.2365 36.8373 44 36.0738 44 35.1319C44 34.1899 43.2365 33.4264 42.2946 33.4264H2.04651C1.1046 33.4264 0.341085 34.1899 0.341085 35.1319C0.341085 36.0738 1.1046 36.8373 2.04651 36.8373H11.2315L7.82066 40.2481H2.04651C1.1046 40.2481 0.341085 41.0117 0.341085 41.9536C0.341085 42.8955 1.1046 43.659 2.04651 43.659H42.2946C43.2365 43.659 44 42.8955 44 41.9536C44 41.0117 43.2365 40.2481 42.2946 40.2481H33.1096L36.5204 36.8373H42.2946ZM16.0553 36.8373H21.4642L18.0533 40.2481H12.6445L16.0553 36.8373ZM28.2858 40.2481H22.8769L26.2878 36.8373H31.6966L28.2858 40.2481ZM5.11628 10.2326H18.7597C19.7016 10.2326 20.4651 9.46911 20.4651 8.5272C20.4651 7.5853 19.7016 6.82178 18.7597 6.82178H5.11628C2.29516 6.82178 0 9.11694 0 11.9381C0 14.7592 2.29516 17.0543 5.11628 17.0543H18.7597C19.7016 17.0543 20.4651 16.2908 20.4651 15.3489C20.4651 14.407 19.7016 13.6435 18.7597 13.6435H5.11628C4.17591 13.6435 3.41085 12.8784 3.41085 11.9381C3.41085 10.9977 4.17591 10.2326 5.11628 10.2326Z" fill="#A2A2A2"/>
<path d="M32.4031 23.876C35.2242 23.876 37.5194 21.5808 37.5194 18.7597V8.52713C37.5194 3.82527 33.6942 0 28.9923 0C26.1711 0 23.876 2.29516 23.876 5.11628V18.7597C23.876 21.5808 26.1711 23.876 28.9923 23.876H32.4031ZM27.2868 18.7597V5.11628C27.2868 4.17591 28.0519 3.41085 28.9923 3.41085C31.8134 3.41085 34.1085 5.70602 34.1085 8.52713V18.7597C34.1085 19.7001 33.3435 20.4651 32.4031 20.4651H28.9923C28.0519 20.4651 27.2868 19.7001 27.2868 18.7597Z" fill="#A2A2A2"/>
</svg>
