<svg width="26" height="44" viewBox="0 0 26 44" fill="none" xmlns="http://www.w3.org/2000/svg">
<g clip-path="url(#clip0_728_5185)">
<path d="M11.708 28.5297V11.5347C11.708 10.8231 11.1292 10.2456 10.416 10.2456C9.70285 10.2456 9.12404 10.8231 9.12404 11.5347V28.5297C6.85272 29.1054 5.16797 31.1628 5.16797 33.606C5.16797 36.4935 7.52197 38.843 10.416 38.843C13.3101 38.843 15.6641 36.4935 15.6641 33.606C15.6641 31.1628 13.9793 29.1054 11.708 28.5297ZM10.416 36.2649C8.94661 36.2649 7.75195 35.0721 7.75195 33.606C7.75195 32.1399 8.94747 30.9471 10.416 30.9471C11.8846 30.9471 13.0801 32.1399 13.0801 33.606C13.0801 35.0721 11.8846 36.2649 10.416 36.2649Z" fill="#A2A2A2"/>
<path d="M16.8277 25.4143V6.39805C16.8277 2.87031 13.9518 0 10.416 0C6.88028 0 4.00431 2.87031 4.00431 6.39805V25.4134C1.48493 27.3788 0 30.3918 0 33.6059C0 39.337 4.6727 44 10.416 44C16.1593 44 20.832 39.337 20.832 33.6059C20.832 30.3918 19.3471 27.3788 16.8277 25.4143ZM10.416 41.4227C6.09733 41.4227 2.58398 37.9165 2.58398 33.6067C2.58398 31.014 3.86908 28.5948 6.0224 27.1356C6.3764 26.8959 6.58829 26.4963 6.58829 26.0691V6.39805C6.58829 4.29172 8.30577 2.57812 10.416 2.57812C12.5263 2.57812 14.2438 4.29172 14.2438 6.39805V26.0683C14.2438 26.4954 14.4556 26.895 14.8096 27.1348C16.9621 28.594 18.2481 31.0131 18.2481 33.6059C18.2481 37.9156 14.7347 41.4219 10.416 41.4219V41.4227Z" fill="#A2A2A2"/>
<path d="M24.7084 20.5811H20.7041C19.9909 20.5811 19.4121 21.1586 19.4121 21.8701C19.4121 22.5817 19.9909 23.1592 20.7041 23.1592H24.7084C25.4216 23.1592 26.0004 22.5817 26.0004 21.8701C26.0004 21.1586 25.4216 20.5811 24.7084 20.5811Z" fill="#A2A2A2"/>
<path d="M24.7084 15.4238H20.7041C19.9909 15.4238 19.4121 16.0013 19.4121 16.7129C19.4121 17.4245 19.9909 18.002 20.7041 18.002H24.7084C25.4216 18.002 26.0004 17.4245 26.0004 16.7129C26.0004 16.0013 25.4216 15.4238 24.7084 15.4238Z" fill="#A2A2A2"/>
<path d="M24.7084 10.2671H20.7041C19.9909 10.2671 19.4121 10.8446 19.4121 11.5562C19.4121 12.2677 19.9909 12.8452 20.7041 12.8452H24.7084C25.4216 12.8452 26.0004 12.2677 26.0004 11.5562C26.0004 10.8446 25.4216 10.2671 24.7084 10.2671Z" fill="#A2A2A2"/>
<path d="M20.7041 7.68701H24.7084C25.4216 7.68701 26.0004 7.10951 26.0004 6.39795C26.0004 5.68639 25.4216 5.10889 24.7084 5.10889H20.7041C19.9909 5.10889 19.4121 5.68639 19.4121 6.39795C19.4121 7.10951 19.9909 7.68701 20.7041 7.68701Z" fill="#A2A2A2"/>
</g>
<defs>
<clipPath id="clip0_728_5185">
<rect width="26" height="44" fill="white"/>
</clipPath>
</defs>
</svg>
