<svg width="21" height="22" viewBox="0 0 21 22" fill="none" xmlns="http://www.w3.org/2000/svg">
<path d="M10.2106 12.6817C6.65916 13.0027 3.95346 16.0036 4.00061 19.5692V19.75C4.00061 20.4403 4.56026 21 5.25061 21C5.94096 21 6.50061 20.4403 6.50061 19.75V19.5192C6.46303 17.3299 8.07866 15.463 10.2506 15.1858C12.5433 14.9585 14.5862 16.6328 14.8136 18.9255C14.827 19.061 14.8338 19.1971 14.8339 19.3334V19.75C14.8339 20.4403 15.3936 21 16.0839 21C16.7743 21 17.3339 20.4403 17.3339 19.75V19.3333C17.3299 15.6473 14.3384 12.6624 10.6524 12.6665C10.505 12.6667 10.3577 12.6717 10.2106 12.6817Z" fill="white"/>
<path d="M10.6675 11C13.4289 11 15.6675 8.76141 15.6675 6.00001C15.6675 3.2386 13.4289 1 10.6675 1C7.90608 1 5.66748 3.2386 5.66748 6.00001C5.67021 8.76028 7.90721 10.9972 10.6675 11ZM10.6675 3.5C12.0482 3.5 13.1675 4.6193 13.1675 6.00001C13.1675 7.38071 12.0482 8.50001 10.6675 8.50001C9.28678 8.50001 8.16748 7.38071 8.16748 6.00001C8.16748 4.6193 9.28678 3.5 10.6675 3.5Z" fill="white"/>
</svg>
