<svg width="145" height="50" viewBox="0 0 145 50" fill="none" xmlns="http://www.w3.org/2000/svg">
<g clip-path="url(#clip0_724_1194)">
<path d="M144.915 6.21143H57.9604V50H144.915V6.21143Z" fill="#171717" fill-opacity="0.8"/>
<path d="M57.9775 0H0V43.7886H57.9775V0Z" fill="#FF3D00"/>
<path fill-rule="evenodd" clip-rule="evenodd" d="M126.899 31.6289H130.779C131.971 31.6289 132.92 31.5145 133.596 31.2857C134.272 31.0569 134.817 30.7481 135.22 30.3305C135.782 29.7643 136.237 28.9693 136.538 27.997C136.861 27.0247 137.021 25.8579 137.021 24.4623C137.021 22.552 136.714 21.0764 136.089 20.0526C135.459 19.0002 134.703 18.3196 133.817 17.9592C133.175 17.7019 132.142 17.5875 130.71 17.5875H126.894V31.6289H126.899ZM124.486 33.768V15.4312H130.75C132.17 15.4312 133.244 15.5284 133.988 15.6886C135.033 15.9345 135.919 16.3692 136.663 17.0041C137.611 17.8334 138.338 18.8686 138.804 20.1498C139.287 21.431 139.531 22.8723 139.531 24.5081C139.531 25.8865 139.372 27.1162 139.048 28.2029C138.724 29.2724 138.31 30.1818 137.81 30.8796C137.293 31.5774 136.748 32.1436 136.152 32.5326C135.555 32.9386 134.834 33.2475 133.976 33.4591C133.124 33.6707 132.159 33.768 131.063 33.768H124.491H124.486ZM110.803 26.2468H117L115.103 21.1736C114.524 19.6179 114.103 18.3367 113.797 17.3301C113.541 18.5312 113.217 19.698 112.797 20.8647L110.803 26.2468ZM105.573 33.768L112.541 15.4312H115.182L122.589 33.768H119.851L117.744 28.2086H110.099L108.134 33.768H105.573ZM89.84 27.8826L92.1118 27.671C92.2084 28.5975 92.464 29.3582 92.8502 29.9588C93.2534 30.5422 93.8669 31.0112 94.6847 31.3829C95.5083 31.7375 96.4397 31.932 97.4677 31.932C98.3878 31.932 99.1886 31.789 99.8986 31.5088C100.591 31.2342 101.12 30.8625 101.46 30.3763C101.801 29.8901 101.977 29.3697 101.977 28.7863C101.977 28.2029 101.818 27.7167 101.478 27.2935C101.154 26.8702 100.609 26.5156 99.8531 26.2068C99.3533 26.0295 98.2742 25.7206 96.6158 25.3145C94.9403 24.9256 93.7646 24.5367 93.1058 24.1821C92.2368 23.7302 91.595 23.1468 91.1747 22.4776C90.7431 21.797 90.5329 21.0363 90.5329 20.1898C90.5329 19.2518 90.7885 18.3768 91.3224 17.5817C91.8392 16.7696 92.5946 16.169 93.5942 15.7515C94.5938 15.3283 95.7014 15.1338 96.9282 15.1338C98.2799 15.1338 99.4726 15.3454 100.501 15.7801C101.517 16.2148 102.318 16.8496 102.869 17.7076C103.414 18.5483 103.721 19.5264 103.755 20.6074L101.455 20.7847C101.324 19.6179 100.91 18.7428 100.2 18.1594C99.4726 17.5589 98.4276 17.2672 97.0304 17.2672C95.6332 17.2672 94.52 17.5245 93.8441 18.0793C93.1853 18.617 92.8445 19.2633 92.8445 20.024C92.8445 20.6874 93.0887 21.2251 93.5545 21.6598C94.0202 22.083 95.2299 22.5177 97.1951 22.9581C99.1432 23.3928 100.478 23.7817 101.205 24.1249C102.267 24.611 103.039 25.2287 103.556 25.9894C104.056 26.733 104.295 27.5966 104.295 28.5861C104.295 29.5756 104.022 30.485 103.471 31.3429C102.926 32.2008 102.119 32.8814 101.091 33.3562C100.063 33.8252 98.8876 34.0711 97.5983 34.0711C95.9569 34.0711 94.5711 33.8309 93.475 33.339C92.3504 32.87 91.4928 32.1379 90.851 31.1656C90.2205 30.2104 89.9025 29.0894 89.8514 27.8769L89.84 27.8826ZM76.9473 26.2468H83.1267L81.2411 21.1736C80.6617 19.6179 80.2244 18.3367 79.9348 17.3301C79.6792 18.5312 79.3554 19.698 78.9352 20.8647L76.9416 26.2468H76.9473ZM71.6993 33.768L78.6852 15.4312H81.3263L88.7325 33.768H85.9949L83.8878 28.2086H76.243L74.2608 33.768H71.6993ZM59.721 33.768V15.4312H71.9719V17.5875H62.1178V23.2955H70.6486V25.4518H62.1178V33.768H59.721ZM41.5917 24.8856C41.5917 27.0933 42.1881 28.8263 43.3637 30.1075C44.5394 31.3715 46.0218 32.0064 47.7882 32.0064C49.5545 32.0064 51.088 31.3715 52.2467 30.096C53.4223 28.7977 54.0017 26.9846 54.0017 24.6339C54.0017 23.1583 53.7574 21.8599 53.2633 20.7446C52.7692 19.6293 52.0252 18.7657 51.071 18.148C50.1054 17.5474 49.0263 17.2386 47.8166 17.2386C46.124 17.2386 44.6587 17.822 43.4376 19.0059C42.1994 20.1898 41.586 22.1516 41.586 24.8913L41.5917 24.8856ZM39.1097 24.8512C39.1097 21.8199 39.9162 19.4177 41.5406 17.7019C43.165 15.986 45.2437 15.1395 47.8222 15.1395C49.4977 15.1395 51.0085 15.5284 52.3432 16.3406C53.695 17.1528 54.7286 18.2681 55.4329 19.7151C56.1429 21.1736 56.495 22.8094 56.495 24.6453C56.495 26.4813 56.1258 28.1457 55.3648 29.6385C54.6264 31.097 53.5757 32.2008 52.2069 32.9444C50.8381 33.7051 49.3728 34.0768 47.7938 34.0768C46.0729 34.0768 44.5394 33.6536 43.2047 32.83C41.853 32.0006 40.8363 30.8682 40.132 29.4269C39.4391 27.9855 39.104 26.4584 39.104 24.857L39.1097 24.8512ZM23.9736 23.5358H29.142C30.2382 23.5358 31.0901 23.4042 31.7035 23.1811C32.3339 22.9524 32.7997 22.5978 33.1064 22.0944C33.4301 21.5911 33.5891 21.042 33.5891 20.4415C33.5891 19.5664 33.2824 18.8515 32.669 18.2852C32.0386 17.7362 31.0617 17.4616 29.7213 17.4616H23.9736V23.5415V23.5358ZM21.5597 33.768V15.4312H29.6077C31.2321 15.4312 32.4759 15.6085 33.3108 15.9345C34.1457 16.2605 34.8216 16.8439 35.3214 17.6675C35.8212 18.4969 36.0768 19.4177 36.0768 20.4415C36.0768 21.7398 35.6565 22.8437 34.8216 23.7302C33.9867 24.6225 32.7145 25.1715 30.9595 25.4175C31.6013 25.7263 32.084 26.0352 32.4078 26.3269C33.1177 26.9732 33.7766 27.8025 34.4013 28.7748L37.5421 33.768H34.549L32.1352 29.9588C31.4422 28.8377 30.8629 27.997 30.4142 27.4136C29.9485 26.8302 29.5453 26.4413 29.1931 26.1953C28.841 25.9666 28.4661 25.8064 28.097 25.7092C27.8243 25.6634 27.37 25.6291 26.7622 25.6291H23.9792V33.768H21.5654H21.5597ZM6.99152 24.1363H11.6942C13.2561 24.1363 14.3523 23.8618 15.0111 23.2784C15.6529 22.695 15.9767 21.8657 15.9767 20.8133C15.9767 20.0526 15.8006 19.372 15.4144 18.8343C15.0282 18.2852 14.5113 17.9249 13.8866 17.7476C13.4833 17.6332 12.745 17.5875 11.6488 17.5875H6.9972V24.1363H6.99152ZM4.59473 33.768V15.4312H11.4557C12.6655 15.4312 13.5799 15.4941 14.2273 15.6085C15.1134 15.7515 15.8517 16.0489 16.4651 16.4664C17.0785 16.8897 17.5613 17.4731 17.9305 18.2338C18.2996 18.9773 18.4757 19.8066 18.4757 20.7332C18.4757 22.2889 17.9759 23.6044 16.9933 24.6739C16.0107 25.7606 14.2387 26.2926 11.6658 26.2926H6.9972V33.768H4.60041H4.59473Z" fill="white"/>
</g>
<defs>
<clipPath id="clip0_724_1194">
<rect width="144.915" height="50" fill="white"/>
</clipPath>
</defs>
</svg>
