<svg width="86" height="86" viewBox="0 0 86 86" fill="none" xmlns="http://www.w3.org/2000/svg">
<rect width="86" height="86" rx="43" fill="#272727"/>
<path d="M54.6667 25H38C33.4 25 29.6667 28.7333 29.6667 33.3333V46.6667C29.6667 51.2667 33.4 55 38 55H54.6667C59.2667 55 63 51.2667 63 46.6667V33.3333C63 28.7333 59.2667 25 54.6667 25ZM38 28.3333H54.6667C56.15 28.3333 57.4833 28.9833 58.4 30L49.8667 38.5333C48.9292 39.4697 47.6583 39.9956 46.3333 39.9956C45.0083 39.9956 43.7375 39.4697 42.8 38.5333L34.2667 30C35.1833 28.9667 36.5167 28.3333 38 28.3333ZM54.6667 51.6667H38C35.25 51.6667 33 49.4167 33 46.6667V33.45L40.4333 40.8833C42.0015 42.4417 44.1225 43.3164 46.3333 43.3164C48.5442 43.3164 50.6652 42.4417 52.2333 40.8833L59.6667 33.45V46.6667C59.6667 49.4167 57.4167 51.6667 54.6667 51.6667ZM54.6667 60C54.6667 60.9167 53.9167 61.6667 53 61.6667H31.3333C26.7333 61.6667 23 57.9333 23 53.3333V35C23 34.0833 23.75 33.3333 24.6667 33.3333C25.5833 33.3333 26.3333 34.0833 26.3333 35V53.3333C26.3333 56.0833 28.5833 58.3333 31.3333 58.3333H53C53.9167 58.3333 54.6667 59.0833 54.6667 60Z" fill="#A2A2A2"/>
</svg>
