<svg width="87" height="86" viewBox="0 0 87 86" fill="none" xmlns="http://www.w3.org/2000/svg">
<rect x="0.5" width="86" height="86" rx="43" fill="#272727"/>
<path d="M63.5019 41.785C63.2608 37.885 61.8838 34.1409 59.5405 31.014C57.1973 27.8872 53.9902 25.5145 50.3147 24.1883C46.6393 22.8622 42.656 22.6406 38.8562 23.5508C35.0563 24.4611 31.6058 26.4635 28.9301 29.311C26.2545 32.1586 24.4706 35.7269 23.7985 39.5761C23.1263 43.4253 23.5952 47.387 25.1474 50.9729C26.6996 54.5587 29.2672 57.612 32.5337 59.7563C35.8002 61.9005 39.6228 63.042 43.5302 63.04H55.1686C57.378 63.0378 59.4963 62.1591 61.0587 60.5968C62.621 59.0345 63.4997 56.9161 63.5019 54.7067V41.785ZM60.1685 54.7067C60.1685 56.0328 59.6418 57.3045 58.7041 58.2422C57.7664 59.1799 56.4946 59.7067 55.1686 59.7067H43.5302C41.1784 59.7056 38.8533 59.2089 36.7064 58.2488C34.5595 57.2888 32.639 55.8871 31.0702 54.135C29.4938 52.3838 28.3101 50.3158 27.5984 48.0696C26.8866 45.8235 26.6634 43.4512 26.9435 41.1117C27.3859 37.4216 29.0439 33.9836 31.656 31.3399C34.268 28.6961 37.6857 26.9969 41.3702 26.51C42.0889 26.4199 42.8125 26.3743 43.5369 26.3733C47.421 26.3627 51.1849 27.7198 54.1685 30.2067C55.9111 31.6549 57.3414 33.4419 58.3728 35.4594C59.4041 37.4768 60.0151 39.6827 60.1685 41.9433V54.7067Z" fill="#A2A2A2"/>
<path d="M36.8356 38.0401H43.5023C43.9443 38.0401 44.3682 37.8645 44.6808 37.552C44.9934 37.2394 45.1689 36.8155 45.1689 36.3735C45.1689 35.9314 44.9934 35.5075 44.6808 35.1949C44.3682 34.8824 43.9443 34.7068 43.5023 34.7068H36.8356C36.3936 34.7068 35.9697 34.8824 35.6571 35.1949C35.3445 35.5075 35.1689 35.9314 35.1689 36.3735C35.1689 36.8155 35.3445 37.2394 35.6571 37.552C35.9697 37.8645 36.3936 38.0401 36.8356 38.0401ZM50.1689 41.3735H36.8356C36.3936 41.3735 35.9697 41.549 35.6571 41.8616C35.3445 42.1742 35.1689 42.5981 35.1689 43.0401C35.1689 43.4821 35.3445 43.9061 35.6571 44.2186C35.9697 44.5312 36.3936 44.7068 36.8356 44.7068H50.1689C50.611 44.7068 51.0349 44.5312 51.3475 44.2186C51.66 43.9061 51.8356 43.4821 51.8356 43.0401C51.8356 42.5981 51.66 42.1742 51.3475 41.8616C51.0349 41.549 50.611 41.3735 50.1689 41.3735ZM50.1689 48.0401H36.8356C36.3936 48.0401 35.9697 48.2157 35.6571 48.5283C35.3445 48.8408 35.1689 49.2648 35.1689 49.7068C35.1689 50.1488 35.3445 50.5727 35.6571 50.8853C35.9697 51.1979 36.3936 51.3735 36.8356 51.3735H50.1689C50.611 51.3735 51.0349 51.1979 51.3475 50.8853C51.66 50.5727 51.8356 50.1488 51.8356 49.7068C51.8356 49.2648 51.66 48.8408 51.3475 48.5283C51.0349 48.2157 50.611 48.0401 50.1689 48.0401Z" fill="#A2A2A2"/>
</svg>
