<svg width="178" height="23" viewBox="0 0 178 23" fill="none" xmlns="http://www.w3.org/2000/svg">
<g clip-path="url(#clip0_26_621)">
<path d="M87.8612 17.0917C86.8172 18.9021 85.536 20.2542 84.0175 21.1479C82.499 22.0646 80.767 22.5 78.8214 22.5C75.1912 22.5 72.3915 21.1938 70.3985 18.6042C69.6629 17.6417 69.0935 16.5875 68.7376 15.4646C68.358 14.3417 68.1919 13.1042 68.1919 11.8208C68.1919 10.7896 68.3105 9.82708 68.5478 8.86458C68.7851 7.925 69.1172 7.00833 69.5918 6.16042C70.09 5.24375 70.6595 4.44167 71.3475 3.75417C72.0356 3.04375 72.8186 2.44792 73.6965 1.94375C74.5506 1.4625 75.4522 1.11875 76.3776 0.866667C77.3029 0.6375 78.2757 0.5 79.2959 0.5C80.1026 0.5 80.8856 0.591667 81.6686 0.775C82.4516 0.958333 83.2108 1.23333 83.97 1.62292C84.1836 1.7375 84.3734 1.80625 84.5158 1.85208C84.6581 1.89792 84.753 1.92083 84.8242 1.92083C85.0852 1.92083 85.2987 1.82917 85.4648 1.64583C85.6546 1.43958 85.8207 1.11875 85.9156 0.660417L85.9631 0.5H86.9359L87.4578 7.94792H86.5325L86.4851 7.7875C85.8919 5.8625 84.9903 4.41875 83.8514 3.45625C82.7125 2.49375 81.2652 2.03542 79.5569 2.03542C78.0384 2.03542 76.7572 2.37917 75.7132 3.08958C74.6692 3.8 73.8388 4.85417 73.2219 6.275C72.8898 7.03125 72.6525 7.85625 72.4864 8.79583C72.3203 9.73542 72.2491 10.7437 72.2491 11.8667C72.2491 13.7688 72.5576 15.3729 73.1745 16.6792C73.7676 17.9625 74.693 18.9708 75.903 19.6812C76.4962 20.025 77.1605 20.3 77.8486 20.4833C78.5367 20.6667 79.2722 20.7583 80.0552 20.7583C80.8381 20.7583 81.5737 20.6667 82.238 20.4833C82.9024 20.3 83.5192 20.0021 84.0887 19.6354C84.5395 19.3375 84.9903 18.9479 85.4886 18.4438C85.9868 17.9396 86.5088 17.3208 87.0545 16.5875L87.1731 16.4271L88.0036 16.9542L87.8612 17.0917Z" fill="white" fill-opacity="0.25"/>
<path d="M28.6161 4.87728C28.6161 4.3502 28.5924 3.9377 28.5687 3.59395C28.545 3.20436 28.5212 2.7002 27.8806 2.33353C27.3586 2.03561 26.7655 1.98978 26.5282 1.98978H25.5554V0.981445H35.1409V2.0127H34.1682C33.9309 2.0127 33.3615 2.03561 32.8157 2.35645C32.1751 2.72311 32.1514 3.22728 32.1277 3.61686C32.1039 3.96061 32.0802 4.37311 32.0802 4.9002V10.5835H41.5946V4.87728C41.5946 4.3502 41.5708 3.9377 41.5471 3.59395C41.5234 3.20436 41.4997 2.7002 40.859 2.33353C40.3371 2.03561 39.7439 1.98978 39.5066 1.98978H38.5338V0.981445H48.1194V2.0127H47.1466C46.9093 2.0127 46.3399 2.03561 45.7942 2.35645C45.1535 2.72311 45.1298 3.22728 45.1061 3.61686C45.0824 3.96061 45.0586 4.37311 45.0586 4.9002V18.146C45.0586 18.6731 45.0824 19.0856 45.1061 19.4294C45.1298 19.8189 45.1535 20.3231 45.7942 20.6898C46.3161 20.9877 46.9093 21.0335 47.1466 21.0335H48.1194V22.0419H38.5338V21.0106H39.5066C39.7439 21.0106 40.3133 20.9877 40.859 20.6669C41.4997 20.3002 41.5234 19.796 41.5471 19.4064C41.5708 19.0627 41.5946 18.6502 41.5946 18.1231V12.0731L32.0802 12.096V18.1231C32.0802 18.6502 32.1039 19.0627 32.1277 19.4064C32.1514 19.796 32.1751 20.3002 32.8157 20.6669C33.3377 20.9648 33.9309 21.0106 34.1682 21.0106H35.1409V22.0419H25.5554V21.0106H26.5282C26.7655 21.0106 27.3349 20.9877 27.8806 20.6669C28.5212 20.3002 28.545 19.796 28.5687 19.4064C28.5924 19.0627 28.6161 18.6502 28.6161 18.1231V4.87728Z" fill="white" fill-opacity="0.25"/>
<path d="M107.981 0.981413L108.242 6.25225H108.005H107.222L107.198 6.06891C107.151 5.65641 106.985 4.83141 106.748 4.30433C106.487 3.75433 106.036 3.36475 105.514 3.11266C104.968 2.83766 104.304 2.70016 103.497 2.70016H100.697V18.146C100.697 18.6731 100.721 19.0856 100.745 19.4293C100.768 19.8189 100.792 20.3231 101.433 20.6897C101.955 20.9877 102.548 21.0335 102.785 21.0335H103.758V22.0418H94.1725V21.0106H95.1453C95.3826 21.0106 95.952 20.9877 96.4977 20.6668C97.1383 20.3002 97.162 19.796 97.1858 19.4064C97.2095 19.0627 97.2332 18.6502 97.2332 18.1231V2.67725H94.4572C93.6505 2.67725 92.9862 2.81475 92.4405 3.08975C91.9185 3.36475 91.4677 3.73141 91.2067 4.28141C90.9694 4.78558 90.8271 5.61058 90.7559 6.046L90.7322 6.22933H89.9492H89.7119L89.9729 0.958496H107.981V0.981413Z" fill="white" fill-opacity="0.25"/>
<path d="M66.7447 0.981445L67.0057 6.25228H66.7684H65.9854L65.9617 6.06894C65.9142 5.65645 65.7482 4.83145 65.5109 4.30436C65.2499 3.75436 64.7991 3.36478 64.2771 3.1127C63.7314 2.8377 63.0671 2.7002 62.2603 2.7002H56.9931V18.146C56.9931 18.6731 57.0168 19.0856 57.0405 19.4294C57.0642 19.8189 57.088 20.3231 57.7286 20.6898C58.2506 20.9877 58.8437 21.0335 59.081 21.0335H60.0538V22.0419H50.4683V21.0106H51.441C51.6783 21.0106 52.2477 20.9877 52.7935 20.6669C53.4341 20.3002 53.4578 19.796 53.4815 19.4064C53.5053 19.0627 53.529 18.6502 53.529 18.1231C53.529 14.8002 53.529 8.17728 53.529 4.87728C53.529 4.3502 53.5053 3.9377 53.4815 3.59395C53.4578 3.20436 53.4341 2.7002 52.7935 2.33353C52.2715 2.03561 51.6783 1.98978 51.441 1.98978H50.4683V0.981445H66.7447Z" fill="white" fill-opacity="0.25"/>
<path d="M126.559 5.0835C126.369 4.5335 126.061 4.00641 125.681 3.54808C125.231 3.021 124.732 2.58558 124.163 2.21891C123.593 1.85225 122.953 1.57725 122.265 1.39391C121.743 1.25641 121.15 1.14183 120.485 1.07308C119.797 1.00433 119.038 0.958496 118.207 0.958496H110.14V1.98975H111.113C111.35 1.98975 111.92 2.01266 112.466 2.3335C113.106 2.70016 113.13 3.20433 113.154 3.59391C113.177 3.93766 113.201 4.35016 113.201 4.87725V18.146C113.201 18.6731 113.177 19.0856 113.154 19.4064C113.13 19.796 113.106 20.3002 112.466 20.6668C111.944 20.9647 111.35 21.0106 111.113 21.0106H110.117V22.0418H119.702V21.0106H118.729C118.492 21.0106 117.923 20.9877 117.377 20.6668C116.736 20.3002 116.713 19.796 116.689 19.4064C116.665 19.0627 116.641 18.6502 116.641 18.146V12.3939C117.235 12.5085 117.78 12.6002 118.326 12.6689C118.943 12.7377 119.512 12.7835 120.034 12.7835C121.031 12.7835 121.933 12.6689 122.739 12.4168C123.546 12.1647 124.258 11.7981 124.875 11.3168C125.539 10.7897 126.037 10.1481 126.369 9.41475C126.702 8.68141 126.868 7.8335 126.868 6.89391C126.868 6.25225 126.749 5.65641 126.559 5.0835ZM122.573 8.77308C122.407 9.25433 122.146 9.68975 121.814 10.1022C121.458 10.5377 121.031 10.8585 120.58 11.0647C120.106 11.271 119.607 11.3856 119.014 11.3856C118.706 11.3856 118.35 11.3627 117.923 11.3168C117.543 11.271 117.116 11.2022 116.618 11.1106V2.86058C116.974 2.79183 117.282 2.72308 117.567 2.70016C117.899 2.65433 118.207 2.63141 118.468 2.63141C118.896 2.63141 119.299 2.67725 119.678 2.76891C120.058 2.86058 120.414 2.99808 120.746 3.18141C121.434 3.54808 121.956 4.07516 122.288 4.73975C122.644 5.40433 122.81 6.22933 122.81 7.21475C122.834 7.76475 122.739 8.29183 122.573 8.77308Z" fill="white" fill-opacity="0.25"/>
<path d="M131.708 4.87728C131.708 4.3502 131.684 3.9377 131.66 3.59395C131.637 3.20436 131.613 2.7002 130.972 2.33353C130.45 2.03561 129.857 1.98978 129.62 1.98978H128.647V0.981445H138.256H145.541L145.802 5.93145H145.564H144.758L144.734 5.74811C144.686 5.33561 144.52 4.51061 144.283 3.98353C144.022 3.43353 143.666 3.08978 143.144 2.8377C142.598 2.5627 141.839 2.53978 141.032 2.53978H135.148V10.2627H139.633C140.226 10.2627 140.724 10.2169 141.104 10.1252C141.483 10.0335 141.744 9.91895 141.934 9.78145C142.171 9.5752 142.361 9.27728 142.504 8.91061C142.646 8.52103 142.741 8.03978 142.765 7.46686V7.26061H143.808V14.7773H142.765V14.571C142.741 13.9981 142.646 13.5398 142.504 13.1273C142.361 12.7606 142.171 12.4627 141.934 12.2564C141.768 12.096 141.483 11.9814 141.104 11.9127C140.724 11.821 140.226 11.7752 139.633 11.7752H135.148V17.5731C135.148 18.1002 135.148 18.6273 135.172 18.9481C135.196 19.2919 135.196 19.5439 135.314 19.8419C135.386 20.0023 135.599 20.3002 136.145 20.3919C136.524 20.4606 137.165 20.4606 137.26 20.4606C137.26 20.4606 141.293 20.4377 141.673 20.4148C142.029 20.3919 142.337 20.346 142.551 20.3002C142.907 20.2314 143.215 20.0939 143.524 19.9335C143.832 19.7731 144.117 19.5439 144.378 19.2919C144.686 18.9939 145.019 18.6044 145.327 18.146C145.659 17.6877 145.991 17.1377 146.323 16.496L146.395 16.3814H147.486L147.391 16.6794L145.493 21.996H128.647V20.9648H129.62C129.857 20.9648 130.427 20.9419 130.972 20.621C131.613 20.2544 131.637 19.7502 131.66 19.3606C131.684 19.0169 131.708 18.6044 131.708 18.0773V4.87728Z" fill="white" fill-opacity="0.25"/>
<path d="M177.453 0.981445V2.0127H176.48C176.243 2.0127 175.673 2.03561 175.127 2.35645C174.487 2.72311 174.463 3.22728 174.439 3.61686C174.416 3.96061 174.392 4.37311 174.392 4.9002V18.146C174.392 18.6731 174.416 19.0856 174.439 19.4294C174.463 19.8189 174.487 20.3231 175.127 20.6898C175.649 20.9877 176.243 21.0335 176.48 21.0335H177.453V22.0419H167.867V21.0106H168.84C169.077 21.0106 169.647 20.9877 170.192 20.6669C170.833 20.3002 170.857 19.796 170.88 19.4064C170.904 19.0627 170.928 18.6502 170.928 18.1231V5.4502L163.074 22.0419H162.268L154.367 5.4502V18.1231C154.367 18.6502 154.39 19.0627 154.414 19.4064C154.438 19.796 154.462 20.3002 155.102 20.6669C155.624 20.9648 156.217 21.0106 156.455 21.0106H157.427V22.0419H149.479V21.0106H150.452C150.689 21.0106 151.258 20.9877 151.804 20.6669C152.445 20.3002 152.469 19.796 152.492 19.4064C152.516 19.0627 152.54 18.6502 152.54 18.1231V4.87728C152.54 4.3502 152.516 3.9377 152.492 3.59395C152.469 3.20436 152.445 2.7002 151.804 2.33353C151.282 2.03561 150.689 1.98978 150.452 1.98978H149.479V0.981445H155.956L163.549 16.8169L171.023 0.981445H177.453Z" fill="white" fill-opacity="0.25"/>
<path d="M23.4672 20.9875C22.5182 20.9187 21.7827 20.5979 21.237 20.0021C20.8811 19.6125 20.454 18.8333 19.9794 17.7333L12.4819 0.5H11.6277L4.05894 17.5729C3.41832 19.0396 2.82516 20.0021 2.3269 20.4604C2.16081 20.5979 1.75746 20.85 0.713494 20.9875C0.666041 20.9875 0.523682 20.9875 0.523682 20.9875V22.0417H7.71282V21.0104L7.49929 20.9875C6.00451 20.8958 5.24526 20.5292 5.24526 19.9104C5.24526 19.6583 5.34017 19.1542 5.76725 18.2146L7.14339 15.0979H15.1155L16.3493 17.9167C16.7526 18.8562 16.9662 19.5208 16.9662 19.9333C16.9662 20.2313 16.8238 20.4604 16.5391 20.6437C16.2069 20.8271 15.7087 20.9417 15.0206 20.9875H14.8071V22.0417H23.6808V21.0104L23.4672 20.9875ZM7.83146 13.5396L11.2006 5.97708L14.4986 13.5396H7.83146Z" fill="white" fill-opacity="0.25"/>
</g>
<defs>
<clipPath id="clip0_26_621">
<rect width="177" height="22" fill="white" transform="translate(0.5 0.5)"/>
</clipPath>
</defs>
</svg>
