<svg width="125" height="29" viewBox="0 0 125 29" fill="none" xmlns="http://www.w3.org/2000/svg">
<g clip-path="url(#clip0_26_683)">
<path d="M27.6875 0.0786133H123.859V9.86023H27.6875V0.0786133Z" fill="white" fill-opacity="0.4"/>
<path d="M27.6875 19.861V28.9216H44.8125C44.8125 28.9216 44.8125 27.1737 44.8125 26.9934C44.8125 26.8132 44.7031 26.7505 44.5625 26.7426C44.4297 26.7426 33.3438 26.7426 33.3438 26.7426V23.5056H43.0703V21.601C43.0703 21.4364 42.9844 21.3502 42.8203 21.3502H33.3516V18.0348H44.8125V16.1067C44.8125 15.9343 44.7031 15.8794 44.5625 15.8794H31.6328C29.4453 15.8794 27.6875 17.6586 27.6875 19.861Z" fill="white" fill-opacity="0.25"/>
<path d="M51.0859 15.8794H64.1641C64.3281 15.8794 64.4219 15.9421 64.4219 16.1067V18.027H52.7969V26.531H62.1875V23.49H56.3828V21.5854C56.3828 21.4521 56.4766 21.3424 56.6484 21.3424C58.1016 21.3424 64.0547 21.3424 64.1797 21.3424C64.3125 21.3424 64.4375 21.46 64.4375 21.5932V28.9137H47.1562V19.8532C47.1562 17.6586 48.9219 15.8716 51.1016 15.8716L51.0859 15.8794Z" fill="white" fill-opacity="0.25"/>
<path d="M70.9844 15.8794H84.0625C84.2266 15.8794 84.3203 15.9421 84.3203 16.1067V18.027H72.6953V26.531H82.0781V23.49H76.2734C76.2734 23.49 76.2734 21.7186 76.2734 21.5932C76.2734 21.4678 76.3594 21.3424 76.5313 21.3424C77.9844 21.3424 83.9453 21.3424 84.0625 21.3424C84.1953 21.3424 84.3203 21.46 84.3203 21.5932V28.9137H67.0391V19.8532C67.0391 17.6586 68.8047 15.8716 70.9844 15.8716V15.8794Z" fill="white" fill-opacity="0.25"/>
<path d="M86.9531 19.861V28.9216H104.086V26.9934C104.086 26.821 103.977 26.7505 103.836 26.7426C103.703 26.7426 92.6172 26.7426 92.6172 26.7426V23.4978H102.344V21.601C102.344 21.4364 102.258 21.3502 102.094 21.3502H92.6172V18.0348H104.078V16.1067C104.078 15.9343 103.969 15.8794 103.828 15.8794H90.8906C88.7109 15.8794 86.9531 17.6586 86.9531 19.861Z" fill="white" fill-opacity="0.25"/>
<path d="M0 15.8794H18.8594V18.3091H8.84375V21.1543H18.8594V23.6702H8.89062V26.4918H18.8594V28.9216L0 28.9137V15.8794Z" fill="white" fill-opacity="0.4"/>
<path fill-rule="evenodd" clip-rule="evenodd" d="M119.672 21.3581C120.273 21.3581 121.133 20.731 121.133 19.6964C121.133 18.5521 120.328 18.0427 119.672 18.0427H112.039V21.3581H119.672ZM120.445 15.8794C122.328 15.8794 123.859 17.7919 123.859 19.6886C123.859 21.5854 122.32 23.4978 120.438 23.4978H118.898L124.719 28.4513C124.719 28.4513 125.297 28.9137 124.688 28.9137H118.5C118.242 28.9137 118.125 28.7648 117.859 28.5532C118.063 28.6943 112.039 23.4978 112.039 23.4978V28.9137H106.391V19.8532C106.391 17.6586 108.148 15.8716 110.328 15.8716H120.453L120.445 15.8794Z" fill="white" fill-opacity="0.25"/>
</g>
<defs>
<clipPath id="clip0_26_683">
<rect width="125" height="29" fill="white"/>
</clipPath>
</defs>
</svg>
