<svg width="215" height="47" viewBox="0 0 215 47" fill="none" xmlns="http://www.w3.org/2000/svg">
<g clip-path="url(#clip0_26_601)">
<path d="M86.2715 11.49V32.0979H92.4856V11.49H103.773V6.39307H74.9863V11.49H86.2715Z" fill="white" fill-opacity="0.25"/>
<path d="M65.6611 25.6836C63.4326 27.4398 60.7226 28.3308 57.6056 28.3308C54.5242 28.3308 51.8607 27.4485 49.6899 25.7069C47.4912 23.944 46.3347 21.773 46.2541 19.2451C46.1933 16.7255 47.3074 14.5417 49.566 12.7536C51.7832 10.9961 54.4888 10.1064 57.6056 10.1064C60.706 10.1064 63.3793 10.9932 65.5526 12.7441C67.7512 14.5153 68.8964 16.6938 68.9573 19.2143C69.0378 21.718 67.9282 23.8934 65.6611 25.6836ZM66.3138 7.43896C63.6738 6.20541 60.7437 5.58154 57.6056 5.58154C54.4665 5.58154 51.5222 6.20303 48.8534 7.42853C46.1955 8.64774 44.0689 10.3269 42.533 12.4222C41.0136 14.4962 40.2791 16.7803 40.3499 19.2154C40.4581 23.0228 42.1303 26.2777 45.3179 28.8903C48.5291 31.5206 52.6639 32.8547 57.6056 32.8547C59.4934 32.8547 61.3945 32.5516 63.2576 31.9544C65.1144 31.3579 66.6933 30.5599 67.9514 29.5827L68.9573 28.8006V32.099H74.8903V19.2313C74.8903 16.7911 74.1178 14.5004 72.5944 12.4222C71.0575 10.328 68.9463 8.65194 66.3138 7.43896Z" fill="white" fill-opacity="0.25"/>
<path d="M128.483 19.5738C128.483 21.179 128.023 22.7741 127.058 24.089C125.022 26.8653 122.29 28.2763 118.987 28.2763C115.685 28.2763 112.952 26.8653 110.916 24.089C109.952 22.7741 109.492 21.179 109.492 19.5738V6.39258H103.444V18.0961C103.444 20.7961 104.088 23.3019 105.354 25.5458C106.616 27.7815 108.404 29.5745 110.667 30.8731C112.927 32.1692 115.485 32.8278 118.265 32.8278C121.786 32.8278 124.894 31.8093 127.507 29.7963L128.512 29.0247V32.9026C128.512 35.493 127.67 37.6769 126.011 39.394C124.338 41.1239 121.962 42.0021 118.944 42.0021C116.655 42.0021 114.708 41.4797 113.154 40.4507C111.759 39.5259 110.74 38.2953 110.119 36.787L104.585 38.363C105.626 40.6859 107.348 42.6071 109.708 44.0836C112.275 45.687 115.382 46.4996 118.944 46.4996C123.572 46.4996 127.344 45.1868 130.158 42.5975C132.965 40.0148 134.388 36.752 134.388 32.9026C134.388 29.8226 134.391 25.3409 134.402 19.4599C134.41 13.9309 134.415 9.55691 134.416 6.39258H128.483V19.5738Z" fill="white" fill-opacity="0.25"/>
<path d="M161.912 25.6931C159.741 27.443 157.067 28.3317 153.966 28.3317C150.848 28.3317 148.143 27.441 145.925 25.6835C143.668 23.8943 142.554 21.7107 142.616 19.1879C142.696 16.6642 143.851 14.4932 146.049 12.7294C148.222 10.9886 150.886 10.1054 153.966 10.1054C157.083 10.1054 159.794 10.9973 162.021 12.7536C164.289 14.5425 165.399 16.7201 165.318 19.2184C165.257 21.7433 164.112 23.9218 161.912 25.6931ZM162.736 7.41593C160.056 6.19882 157.105 5.58154 153.966 5.58154C150.828 5.58154 147.897 6.19882 145.256 7.41383C142.627 8.62442 140.52 10.3047 138.994 12.4062C137.479 14.4941 136.712 16.7802 136.712 19.2049C136.712 33.4372 136.703 42.4269 136.685 45.9587H142.587V28.7475L143.593 29.5297C144.853 30.5084 146.438 31.3156 148.305 31.929C150.176 32.5432 152.082 32.8556 153.966 32.8556C158.928 32.8556 163.07 31.5215 166.282 28.8912C169.47 26.2789 171.143 23.0153 171.25 19.1921C171.305 16.7739 170.564 14.492 169.051 12.4062C167.525 10.3059 165.4 8.62558 162.736 7.41593Z" fill="white" fill-opacity="0.25"/>
<path d="M198.413 25.6836C196.184 27.4398 193.474 28.3308 190.357 28.3308C187.276 28.3308 184.612 27.4485 182.441 25.7069C180.243 23.944 179.087 21.773 179.006 19.2451C178.945 16.7255 180.059 14.5417 182.316 12.7536C184.535 10.9961 187.239 10.1064 190.357 10.1064C193.457 10.1064 196.131 10.9932 198.304 12.7441C200.503 14.5153 201.648 16.6938 201.709 19.2143C201.789 21.718 200.68 23.8934 198.413 25.6836ZM199.065 7.43896C196.425 6.20541 193.495 5.58154 190.357 5.58154C187.218 5.58154 184.274 6.20303 181.605 7.42853C178.947 8.64774 176.82 10.3269 175.284 12.4222C173.764 14.4962 173.03 16.7803 173.101 19.2154C173.209 23.0228 174.882 26.2777 178.069 28.8903C181.28 31.5206 185.415 32.8547 190.357 32.8547C192.245 32.8547 194.146 32.5516 196.009 31.9544C197.866 31.3579 199.445 30.5599 200.703 29.5827L201.709 28.8006V32.099H207.642V19.2313C207.642 16.7911 206.868 14.5004 205.346 12.4222C203.809 10.328 201.698 8.65194 199.065 7.43896Z" fill="white" fill-opacity="0.25"/>
<path d="M211.537 3.51002H211.413V2.77637H211.558C211.796 2.77637 212.141 2.78593 212.141 3.13932C212.141 3.50256 211.72 3.51002 211.537 3.51002ZM213.158 5.15323L212.171 3.94474C212.631 3.85501 212.927 3.51929 212.927 3.11296C212.927 2.66238 212.562 2.19385 211.759 2.19385H210.684V5.15323H211.413V4.05995L212.306 5.15323H213.158Z" fill="white" fill-opacity="0.25"/>
<path d="M30.8733 6.39258H37.0422V32.0962L6.1687 32.0974V6.39258H12.3439V26.2065H18.5182V6.39258H24.6915V26.2065L30.8733 26.2077V6.39258Z" fill="white" fill-opacity="0.25"/>
<path d="M24.7049 26.2048H30.8735V0.50116L0 0.5V26.2048H6.17547V6.39089H12.3497V26.2048H18.5228L18.524 6.39089L24.7049 6.38973V26.2048Z" fill="#A2A2A2"/>
<path d="M211.673 0.5C209.835 0.5 208.346 1.92089 208.346 3.67388C208.346 5.42601 209.835 6.84776 211.673 6.84776C213.51 6.84776 215 5.42601 215 3.67388C215 1.92089 213.51 0.5 211.673 0.5ZM211.673 6.23773C210.189 6.23773 208.985 5.08941 208.985 3.67388C208.985 2.25835 210.189 1.11004 211.673 1.11004C213.156 1.11004 214.36 2.25835 214.36 3.67388C214.36 5.08941 213.156 6.23773 211.673 6.23773Z" fill="white" fill-opacity="0.25"/>
</g>
<defs>
<clipPath id="clip0_26_601">
<rect width="215" height="46" fill="white" transform="translate(0 0.5)"/>
</clipPath>
</defs>
</svg>
