<svg width="149" height="31" viewBox="0 0 149 31" fill="none" xmlns="http://www.w3.org/2000/svg">
<g clip-path="url(#clip0_26_652)">
<path d="M30.1709 30.0452H24.2958V5.8495H18.3547V0H30.1709V30.0452Z" fill="#A2A2A2"/>
<path d="M16.1102 0H0.333252V5.8495H16.1102V0Z" fill="white" fill-opacity="0.25"/>
<path d="M22.1173 8.10938H0.333252V13.9589H22.1173V8.10938Z" fill="white" fill-opacity="0.25"/>
<path d="M22.1173 16.2192H0.333252V22.0023H22.1173V16.2192Z" fill="white" fill-opacity="0.25"/>
<path d="M22.1173 24.1958H0.333252V29.9788H22.1173V24.1958Z" fill="white" fill-opacity="0.25"/>
<path d="M143.184 18.8115C140.741 18.8115 138.695 20.3403 138.695 22.9327C138.695 25.5251 140.807 26.5887 140.807 26.5887L138.431 30.0452H141.005L142.919 27.054H146.154V30.0452H148.332V18.8115C148.398 18.8115 145.626 18.8115 143.184 18.8115ZM146.22 25.0598C146.22 25.0598 144.306 25.0598 143.118 25.0598C141.929 25.0598 140.939 24.2622 140.939 22.9992C140.939 21.7362 141.863 20.8056 143.118 20.8056C144.372 20.8056 146.22 20.8056 146.22 20.8056V25.0598Z" fill="white" fill-opacity="0.25"/>
<path d="M43.8341 24.1292L40.0715 18.8115H37.761V30.0452H40.0054V22.268L43.306 27.1204H44.2302L47.5308 22.268V30.0452H49.8412V18.8115H47.5308L43.8341 24.1292Z" fill="white" fill-opacity="0.25"/>
<path d="M54.7262 25.1928H60.8653V23.1321H54.7262V20.8721H61.5254V18.8115H52.4817V30.0452H61.8555V27.9846H54.7262V25.1928Z" fill="white" fill-opacity="0.25"/>
<path d="M78.4913 25.1928H84.1683V23.1321H78.4253V20.8721H84.8945V18.8115H76.1809V30.0452H85.1585V27.9846H78.4913V25.1928Z" fill="white" fill-opacity="0.25"/>
<path d="M69.9748 22.6004C67.9944 22.6004 66.4761 22.6004 66.4761 22.6004V20.8056H72.8133V18.8115H64.2317V29.9787C64.2317 29.9787 68.0604 29.9787 70.1068 29.9787C72.1532 29.9787 73.9355 28.5828 73.9355 26.1234C73.9355 23.6639 71.9552 22.6004 69.9748 22.6004ZM69.8428 28.051C68.8526 28.051 66.4101 28.051 66.4101 28.051V24.5945C66.4101 24.5945 68.7866 24.5945 69.7768 24.5945C70.7669 24.5945 71.6911 25.0598 71.6911 26.1898C71.7571 27.3863 70.833 28.051 69.8428 28.051Z" fill="white" fill-opacity="0.25"/>
<path d="M89.6472 26.6551C89.5152 27.5193 89.3172 28.051 88.591 28.051C87.8649 28.051 87.4028 27.8516 87.4028 27.8516L86.9407 29.6464C86.9407 29.6464 87.2048 30.0452 88.9211 30.0452C90.6374 30.0452 91.4295 29.0481 91.6936 27.5857C91.9576 26.1898 92.6178 20.7392 92.6178 20.7392H96.5125V29.9122H98.6909V18.8115H90.7694C90.7694 18.8115 89.7792 25.791 89.6472 26.6551Z" fill="white" fill-opacity="0.25"/>
<path d="M106.414 22.0016C104.698 22.0016 103.509 22.0016 103.509 22.0016V18.8774H101.331V30.0447C101.331 30.0447 104.83 30.0447 106.612 30.0447C108.328 30.0447 110.837 29.0476 110.837 25.7905C110.837 22.7328 108.13 22.0016 106.414 22.0016ZM106.612 27.9841C105.358 27.9841 103.575 27.9841 103.575 27.9841V23.9293C103.575 23.9293 105.358 23.9293 106.546 23.9293C107.8 23.9293 108.658 24.6605 108.658 25.7905C108.658 27.1199 107.866 27.9841 106.612 27.9841Z" fill="white" fill-opacity="0.25"/>
<path d="M120.738 23.0657H115.325V18.8115H113.081V30.0452H115.325V25.0598H120.738V30.0452H122.983V18.8115H120.738V23.0657Z" fill="white" fill-opacity="0.25"/>
<path d="M129.848 18.8115L125.095 30.0452H127.471L128.263 28.051H134.006L134.798 30.0452H137.175L132.488 18.878H129.848V18.8115ZM129.055 25.9904L130.838 20.8721H131.366L133.148 25.9904H129.055Z" fill="white" fill-opacity="0.25"/>
<path d="M65.2886 7.97695C65.2886 7.97695 66.8069 7.97695 68.4572 7.97695C70.1075 7.97695 72.748 7.24576 72.748 4.25454C72.748 1.0639 70.3056 0.133301 68.5893 0.133301C66.8729 0.133301 63.0442 0.133301 63.0442 0.133301V11.1011H65.2226V7.97695H65.2886ZM65.2886 2.06098C65.2886 2.06098 67.401 2.06098 68.6553 2.06098C69.8435 2.06098 70.6356 2.92511 70.6356 4.18807C70.6356 5.31809 69.7775 5.9828 68.5893 5.9828C67.401 5.9828 65.2886 5.9828 65.2886 5.9828V2.06098Z" fill="white" fill-opacity="0.25"/>
<path d="M40.0054 1.99415H46.4086V11.1672H48.653V0H37.761V11.1672H40.0054V1.99415Z" fill="white" fill-opacity="0.25"/>
<path d="M84.8292 7.84359C84.8292 5.58355 83.0468 5.05178 83.0468 5.05178C83.0468 5.05178 84.169 4.71942 84.169 2.79174C84.169 0.797594 82.2547 0.0664062 80.4724 0.0664062C78.69 0.0664062 74.9934 0.0664062 74.9934 0.0664062V11.3666C74.9934 11.3666 78.492 11.3666 80.7364 11.3666C83.1129 11.3666 84.8292 10.1036 84.8292 7.84359ZM77.2378 1.99408C77.2378 1.99408 79.9443 1.99408 80.6704 1.99408C81.3965 1.99408 82.0567 2.32644 82.0567 3.1241C82.0567 3.92176 81.5946 4.32059 80.8684 4.32059C80.1423 4.32059 77.2378 4.32059 77.2378 4.32059V1.99408ZM77.2378 6.24827C77.2378 6.24827 79.8783 6.24827 81.0005 6.24827C82.1227 6.24827 82.7168 6.84651 82.7168 7.77711C82.7168 8.70772 82.0567 9.37243 81.1325 9.37243C80.2083 9.37243 77.3038 9.37243 77.3038 9.37243V6.24827H77.2378Z" fill="white" fill-opacity="0.25"/>
<path d="M60.668 9.17308H53.6047V6.3148H59.6778V4.32065H53.5386V1.99415H60.4039V0H51.2942V11.1672H60.668V9.17308Z" fill="white" fill-opacity="0.25"/>
<path d="M101.661 11.1672L103.575 8.17601H106.81V11.1672H108.988V0C108.988 0 106.216 0 103.773 0C101.331 0 99.2848 1.52885 99.2848 4.12124C99.2848 6.71363 101.397 7.77718 101.397 7.77718L99.0208 11.2337H101.661V11.1672ZM103.707 1.99415C104.962 1.99415 106.81 1.99415 106.81 1.99415V6.24833C106.81 6.24833 104.896 6.24833 103.707 6.24833C102.519 6.24833 101.529 5.45067 101.529 4.18771C101.463 2.92475 102.387 1.99415 103.707 1.99415Z" fill="white" fill-opacity="0.25"/>
<path d="M88.8554 9.17308H94.5985L95.3906 11.1672H97.767L93.0802 0H90.4397L85.6868 11.1672H88.0632L88.8554 9.17308ZM91.4299 2.06062H91.958L93.7403 7.17893H89.5815L91.4299 2.06062Z" fill="white" fill-opacity="0.25"/>
</g>
<defs>
<clipPath id="clip0_26_652">
<rect width="148" height="31" fill="white" transform="translate(0.333252)"/>
</clipPath>
</defs>
</svg>
