<svg width="197" height="37" viewBox="0 0 197 37" fill="none" xmlns="http://www.w3.org/2000/svg">
<g clip-path="url(#clip0_26_571)">
<path fill-rule="evenodd" clip-rule="evenodd" d="M190.068 23.3923C189.707 23.5805 189.316 23.702 188.912 23.7509C188.627 23.7781 188.341 23.7889 188.054 23.783H186.994V19.9855H187.996C188.324 19.9855 188.621 20.015 188.915 20.0417C189.261 20.103 189.599 20.2045 189.922 20.3441C190.396 20.5823 190.693 21.0613 190.838 21.808C190.838 22.5841 190.574 23.122 190.07 23.3923H190.068ZM196.548 20.6412C196.412 19.7317 196.02 18.8808 195.419 18.1898C194.867 17.562 194.165 17.0882 193.379 16.8142C192.627 16.5538 191.837 16.4235 191.042 16.4289H181.193V34.4182C183.765 34.4182 186.992 33.0426 186.992 30.1175V27.3664H191.146C192.114 27.3772 193.072 27.1735 193.954 26.7696C194.784 26.3676 195.474 25.7222 195.936 24.9177C196.439 23.9306 196.684 22.8295 196.646 21.7197C196.644 21.3611 196.615 21.0032 196.558 20.6492L196.548 20.6412Z" fill="white" fill-opacity="0.25"/>
<path fill-rule="evenodd" clip-rule="evenodd" d="M173.438 26.17C173.383 26.7299 173.167 27.2611 172.816 27.6981C172.624 27.9237 172.382 28.101 172.11 28.2162C171.839 28.3314 171.544 28.3812 171.25 28.3618H171.218C170.034 28.3297 169.3 27.4626 169.001 25.7632C168.912 25.2203 168.872 24.6703 168.882 24.12C168.86 23.114 169.01 22.1117 169.327 21.1575C169.621 20.2931 170.243 19.8729 171.16 19.8729H171.218C172.434 19.9024 173.171 20.7695 173.47 22.4742C173.539 23.0202 173.579 23.5697 173.589 24.12C173.593 24.809 173.543 25.4971 173.438 26.178V26.17ZM179.622 24.112C179.618 23.5406 179.569 22.9705 179.473 22.4073C179.309 21.1624 178.819 19.9845 178.053 18.9952C177.31 18.0463 176.331 17.3139 175.216 16.8729C173.935 16.4021 172.582 16.1594 171.218 16.1557H171.102C169.909 16.1452 168.721 16.3166 167.578 16.6642C166.616 16.983 165.729 17.5017 164.977 18.187C164.25 18.8868 163.693 19.7468 163.35 20.6999C162.978 21.7965 162.799 22.9503 162.82 24.1093C162.847 24.6895 162.907 25.2677 163 25.8408C163.168 27.0781 163.646 28.2517 164.389 29.2503C165.131 30.1951 166.114 30.9185 167.231 31.3431C168.509 31.8176 169.862 32.0508 171.224 32.0308H171.277C172.48 32.0598 173.681 31.888 174.829 31.5224C175.811 31.2197 176.718 30.7108 177.492 30.0291C178.208 29.3328 178.764 28.4858 179.121 27.5482C179.494 26.4432 179.663 25.2787 179.622 24.112Z" fill="white" fill-opacity="0.25"/>
<path fill-rule="evenodd" clip-rule="evenodd" d="M155.744 27.4546H151.839C152.074 27.2632 152.259 27.017 152.378 26.7372C152.497 26.4574 152.547 26.1525 152.523 25.8489V20.5206H155.744V27.4546ZM161.398 27.2485V16.4287H147.312V25.1236C147.312 26.2289 146.899 26.922 146.011 27.2485H145.712V34.418H151.307V31.79H156.751V34.418H162.314V27.2485H161.398Z" fill="white" fill-opacity="0.25"/>
<path fill-rule="evenodd" clip-rule="evenodd" d="M87.9321 31.79V16.4287H96.3355L98.3171 24.8266L100.299 16.4287H108.999V30.6847C108.437 31.0433 107.902 31.3993 107.409 31.79H103.721L103.57 19.7151H103.544L100.701 31.79H95.893L92.9047 19.7151H92.812L92.9312 31.79H87.9321Z" fill="white" fill-opacity="0.25"/>
<path fill-rule="evenodd" clip-rule="evenodd" d="M110.358 29.8792L114.861 16.4287H122.851L128.415 31.79H122.873L121.188 26.8605C121.188 26.8016 120.446 26.8899 120.094 26.922V24.7677H120.507L118.822 19.7151H118.766L117.177 24.7677H117.564V27.2913C115.049 27.7825 112.623 28.6588 110.371 29.8899L110.358 29.8792Z" fill="white" fill-opacity="0.25"/>
<path fill-rule="evenodd" clip-rule="evenodd" d="M138.821 21.7195V16.4287H144.617V31.79H138.821V26.261H134.945V31.79H129.146V16.4287H134.945V21.7195H138.821Z" fill="white" fill-opacity="0.25"/>
<path fill-rule="evenodd" clip-rule="evenodd" d="M65.1807 23.6009L70.8712 16.4287H64.5131L60.0306 22.4742H59.975L59.9432 16.4367H54.144V34.426C56.7164 34.426 59.9432 33.0505 59.9432 30.1254L60.0306 25.2815H60.0571L63.9064 31.798H70.7944L65.1728 23.6089L65.1807 23.6009Z" fill="white" fill-opacity="0.25"/>
<path fill-rule="evenodd" clip-rule="evenodd" d="M80.1778 26.1697C80.0972 26.7224 79.8844 27.2469 79.5579 27.6978C79.3628 27.9201 79.1202 28.0946 78.8485 28.2082C78.5768 28.3218 78.2831 28.3715 77.9896 28.3535H77.9604C76.7471 28.3214 76.0071 27.4552 75.7404 25.7549C75.6448 25.2125 75.5961 24.6627 75.5947 24.1117C75.5732 23.1059 75.7229 22.1039 76.0371 21.1492C76.3338 20.2848 76.9537 19.8646 77.8703 19.8646H77.9604C79.1437 19.895 79.8829 20.7621 80.1778 22.4659C80.251 23.0115 80.2908 23.5612 80.297 24.1117C80.2948 24.7994 80.255 25.4865 80.1778 26.1697ZM86.2154 22.407C86.0273 21.1637 85.5285 19.9894 84.7663 18.9949C84.0351 18.0327 83.0511 17.2973 81.9263 16.8727C80.6527 16.4034 79.3082 16.1608 77.9525 16.1555H77.8333C76.6313 16.1426 75.4344 16.3141 74.2833 16.6639C73.3228 16.9896 72.4371 17.5075 71.6791 18.1867C71.0497 18.7937 70.5494 19.524 70.2088 20.333C70.1505 20.4507 70.1187 20.5712 70.0631 20.6916C69.6793 21.7886 69.5041 22.949 69.5465 24.1117C69.5501 24.692 69.5997 25.271 69.6948 25.8432C69.7915 26.459 69.9605 27.0609 70.1982 27.6363C70.4222 28.215 70.7312 28.7563 71.1148 29.242C71.8527 30.1789 72.8236 30.9011 73.9283 31.3348C75.2154 31.8124 76.5788 32.0455 77.9498 32.0225H78.024C79.2172 32.0488 80.4067 31.8771 81.5448 31.5141C82.5293 31.218 83.438 30.7084 84.2073 30.0208C84.9332 29.3329 85.4902 28.4835 85.8339 27.5399C86.2029 26.4333 86.3821 25.2712 86.3637 24.1037C86.3459 23.5331 86.2964 22.964 86.2154 22.399V22.407Z" fill="white" fill-opacity="0.25"/>
<path fill-rule="evenodd" clip-rule="evenodd" d="M178.7 13.3404L176.419 7.21199L174.111 13.3404H172.482L175.619 5.00146H177.219L180.358 13.3404H178.7Z" fill="white" fill-opacity="0.25"/>
<path fill-rule="evenodd" clip-rule="evenodd" d="M187.283 5.00146V13.3404H185.715V8.10851L182.663 13.3404H181.301V5.00146H182.87V10.41L185.951 5.00146H187.283Z" fill="white" fill-opacity="0.25"/>
<path fill-rule="evenodd" clip-rule="evenodd" d="M196.667 6.4627L195.57 7.53317C195.264 7.16604 194.885 6.86947 194.456 6.66355C194.027 6.45762 193.56 6.34714 193.085 6.33959C192.717 6.32938 192.351 6.39534 192.009 6.53341C191.668 6.67149 191.357 6.87875 191.098 7.14244C190.839 7.40573 190.634 7.71921 190.498 8.06411C190.361 8.409 190.295 8.7782 190.303 9.14958C190.292 9.66992 190.415 10.1843 190.658 10.6429C190.888 11.0727 191.237 11.4253 191.662 11.6572C192.106 11.9017 192.606 12.0253 193.111 12.0158C193.537 12.0153 193.958 11.9346 194.354 11.7776C194.806 11.5247 195.216 11.2024 195.57 10.8222L196.63 11.9569C196.135 12.4749 195.554 12.9006 194.913 13.2147C194.327 13.4356 193.705 13.5462 193.08 13.5412C192.501 13.5656 191.924 13.4696 191.384 13.2592C190.844 13.0488 190.353 12.7285 189.94 12.3182C189.539 11.8982 189.226 11.4016 189.017 10.8575C188.809 10.3134 188.71 9.73274 188.727 9.14958C188.713 8.37895 188.909 7.61923 189.291 6.95243C189.659 6.29463 190.204 5.75553 190.862 5.39757C191.55 5.00917 192.324 4.8038 193.111 4.80078C193.787 4.80641 194.454 4.95883 195.067 5.24771C195.683 5.5251 196.227 5.94384 196.656 6.47072L196.667 6.4627Z" fill="white" fill-opacity="0.25"/>
<path fill-rule="evenodd" clip-rule="evenodd" d="M169.584 11.218C169.34 11.4784 169.045 11.6845 168.718 11.8227C168.391 11.961 168.039 12.0285 167.684 12.0208C167.057 12.0265 166.449 11.8043 165.97 11.3946C165.648 11.1277 165.392 10.7888 165.222 10.4047C165.052 10.0206 164.972 9.60182 164.99 9.1814C164.975 8.80703 165.036 8.43354 165.169 8.08379C165.302 7.73405 165.504 7.41545 165.764 7.14751C166.006 6.88766 166.299 6.68197 166.625 6.54369C166.951 6.40541 167.302 6.33761 167.655 6.34465H167.684C168.042 6.33866 168.396 6.41009 168.724 6.55412C169.051 6.69815 169.345 6.91144 169.584 7.17962C169.844 7.44079 170.05 7.75313 170.186 8.09741C170.323 8.44169 170.388 8.8106 170.378 9.1814C170.385 9.55661 170.319 9.9295 170.182 10.2786C170.046 10.6276 169.842 10.946 169.584 11.2153V11.218ZM170.678 6.07703C170.295 5.66387 169.831 5.33615 169.316 5.11492C168.8 4.8937 168.244 4.78386 167.684 4.79246C166.937 4.79388 166.205 5.00015 165.565 5.38925C164.903 5.75737 164.358 6.30648 163.991 6.97355C163.533 7.81218 163.349 8.77589 163.467 9.72641C163.585 10.6769 163.997 11.5654 164.646 12.2644C165.032 12.6875 165.504 13.0214 166.03 13.2431C166.556 13.4648 167.123 13.5691 167.692 13.5489C168.254 13.5592 168.811 13.4531 169.331 13.2373C169.85 13.0214 170.32 12.7003 170.712 12.2938C171.109 11.8828 171.421 11.3963 171.63 10.8624C171.84 10.3286 171.942 9.75811 171.931 9.18408C171.943 8.60792 171.839 8.03531 171.625 7.50113C171.411 6.96696 171.091 6.48241 170.686 6.07703H170.678Z" fill="white" fill-opacity="0.25"/>
<path fill-rule="evenodd" clip-rule="evenodd" d="M156.054 5.00146H161.943V13.3404H160.375V6.49745H157.623V13.3404H156.054V5.00146Z" fill="white" fill-opacity="0.25"/>
<path fill-rule="evenodd" clip-rule="evenodd" d="M149.836 10.0808L150.936 7.22L151.996 10.0889L149.836 10.0808ZM151.704 4.99609H150.136L146.957 13.3351H148.586L149.235 11.633H152.581L153.23 13.3351H154.82L151.686 4.99609H151.704Z" fill="white" fill-opacity="0.25"/>
<path fill-rule="evenodd" clip-rule="evenodd" d="M111.711 5.00146H113.253V13.3404H111.711V5.00146Z" fill="white" fill-opacity="0.25"/>
<path fill-rule="evenodd" clip-rule="evenodd" d="M121.095 5.00146V13.3404H119.527V8.10851L116.48 13.3404H115.118V5.00146H116.687V10.41L119.794 5.00146H121.095Z" fill="white" fill-opacity="0.25"/>
<path fill-rule="evenodd" clip-rule="evenodd" d="M115.887 2.75879H117.129C117.232 2.91557 117.376 3.03989 117.545 3.1174C117.754 3.20162 117.977 3.24242 118.201 3.23736C118.426 3.2323 118.647 3.18149 118.851 3.08796C119 3.01955 119.123 2.90399 119.201 2.75879H120.412C120.355 3.21928 120.122 3.63903 119.763 3.92829C119.378 4.22534 118.849 4.34309 118.173 4.34309C117.781 4.35693 117.39 4.2961 117.021 4.16378C116.72 4.0454 116.455 3.84984 116.252 3.59644C116.07 3.34944 115.947 3.06249 115.895 2.75879H115.887Z" fill="white" fill-opacity="0.25"/>
<path fill-rule="evenodd" clip-rule="evenodd" d="M126.958 5.00146H128.465L130.362 10.8302L132.285 5.00146H133.798L135.157 13.3404H133.679L132.791 8.07907L131.043 13.3404H129.684L127.933 8.07907L127.048 13.3404H125.538L126.958 5.00146Z" fill="white" fill-opacity="0.25"/>
<path fill-rule="evenodd" clip-rule="evenodd" d="M136.431 5.00146H140.901V6.55633H137.968V8.04696H140.901V9.6045H137.968V11.7856H140.901V13.3404H136.431V5.00146Z" fill="white" fill-opacity="0.25"/>
<path fill-rule="evenodd" clip-rule="evenodd" d="M142.35 5.00146H146.406V6.55633H143.889V13.3404H142.35V5.00146Z" fill="white" fill-opacity="0.25"/>
<path fill-rule="evenodd" clip-rule="evenodd" d="M108.723 11.5768C108.532 11.7114 108.309 11.7934 108.077 11.815C107.897 11.815 107.69 11.8445 107.451 11.8445H107.067V9.57506H107.364C107.603 9.5777 107.841 9.59738 108.077 9.63393C108.723 9.7838 109.081 10.1424 109.081 10.7419C109.1 10.9006 109.077 11.0618 109.015 11.2086C108.952 11.3554 108.851 11.4826 108.723 11.5768ZM110.117 9.24589C109.833 8.86285 109.454 8.56344 109.017 8.3788C108.709 8.28466 108.395 8.214 108.077 8.16739C107.867 8.16739 107.629 8.14063 107.391 8.14063H107.067V5.00146H105.496V13.3404H108.077C108.473 13.3402 108.865 13.2582 109.229 13.0996C109.615 12.915 109.942 12.6259 110.175 12.2646C110.453 11.8288 110.598 11.3195 110.591 10.8008C110.592 10.2459 110.427 9.70381 110.117 9.24589Z" fill="white" fill-opacity="0.25"/>
<path fill-rule="evenodd" clip-rule="evenodd" d="M97.7449 5.00146H99.3132V8.14063H102.066V5.00146H103.634V13.3404H102.066V9.69281H99.3132V13.3404H97.7449V5.00146Z" fill="white" fill-opacity="0.25"/>
<path fill-rule="evenodd" clip-rule="evenodd" d="M94.5153 11.5768C94.3098 11.7067 94.078 11.7881 93.8371 11.815C93.657 11.815 93.4503 11.8445 93.2172 11.8445H92.8304V9.57506H93.1563C93.3843 9.5789 93.6118 9.59857 93.8371 9.63393C94.4862 9.7838 94.8412 10.1424 94.8412 10.7419C94.8594 10.8974 94.8392 11.0551 94.7823 11.2008C94.7255 11.3465 94.6337 11.4757 94.5153 11.5768ZM95.9088 9.24589C95.6291 8.84837 95.2364 8.54601 94.7829 8.3788C94.4732 8.285 94.1571 8.21434 93.8371 8.16739C93.6278 8.16739 93.392 8.14063 93.1563 8.14063H92.8304V5.00146H91.27V13.3404H93.8477C94.2532 13.337 94.6542 13.2553 95.0293 13.0996C95.4166 12.9166 95.7453 12.6273 95.9777 12.2646C96.2544 11.8281 96.3981 11.3191 96.391 10.8008C96.4069 10.2442 96.2412 9.69787 95.9194 9.24589H95.9088Z" fill="white" fill-opacity="0.25"/>
<path fill-rule="evenodd" clip-rule="evenodd" d="M77.4385 5.00146H81.9077V6.55633H78.975V8.04696H81.9077V9.6045H78.975V11.7856H81.9077V13.3404H77.4385V5.00146Z" fill="white" fill-opacity="0.25"/>
<path fill-rule="evenodd" clip-rule="evenodd" d="M88.6553 13.3404L86.3769 7.21199L84.1012 13.3404H82.4402L85.5769 5.00146H87.177L90.311 13.3404H88.6553Z" fill="white" fill-opacity="0.25"/>
<path fill-rule="evenodd" clip-rule="evenodd" d="M55.5321 5.00146H57.0739L58.9681 10.8302L60.8623 5.00146H62.3697L63.7632 13.3404H62.2532L61.363 8.07907L59.6198 13.3404H58.2555L56.5388 8.07907L55.6513 13.3404H54.1147L55.5321 5.00146Z" fill="white" fill-opacity="0.25"/>
<path fill-rule="evenodd" clip-rule="evenodd" d="M74.2409 11.5501C74.0184 11.698 73.764 11.7898 73.4991 11.8177C73.3243 11.8177 73.1176 11.8471 72.8792 11.8471H72.4977V9.57506H72.8236C73.0499 9.57758 73.2757 9.59726 73.4991 9.63394C74.18 9.7838 74.5058 10.1692 74.5058 10.7686C74.5151 10.9101 74.4965 11.0521 74.451 11.1862C74.4055 11.3204 74.3341 11.444 74.2409 11.5501ZM75.6317 9.24589C75.3635 8.85056 74.9816 8.54791 74.5376 8.37881C74.1999 8.27132 73.8517 8.20045 73.4991 8.16739C73.2925 8.16739 73.0567 8.14063 72.8236 8.14063H72.4977V6.55633H75.2185V5.00146H70.9241V13.3404H73.4991C73.9607 13.3425 74.4157 13.2294 74.8237 13.0113C75.1931 12.824 75.5012 12.5332 75.7112 12.1736C75.958 11.7494 76.0716 11.2595 76.0371 10.7686C76.0416 10.2322 75.8985 9.705 75.6238 9.24589H75.6317Z" fill="white" fill-opacity="0.25"/>
<path fill-rule="evenodd" clip-rule="evenodd" d="M65.0083 5.00146H69.4749V6.55633H66.574V8.04696H69.4749V9.6045H66.574V11.7856H69.4749V13.3404H65.0083V5.00146Z" fill="white" fill-opacity="0.25"/>
<path fill-rule="evenodd" clip-rule="evenodd" d="M36.2061 18.5163C33.5224 16.8303 28.5233 13.94 24.9071 14.9329C24.1124 15.7357 23.2673 16.56 22.4619 17.3735H21.5956C17.6006 17.3414 14.3208 15.717 11.6372 13.8196C12.0822 12.9739 12.53 12.163 13.036 11.3789C15.3063 13.006 17.99 14.3013 21.5956 14.4458C22.1521 14.4666 22.7093 14.4559 23.2646 14.4137C24.009 13.5734 24.7853 12.7304 25.5588 11.8553C27.8848 10.5921 32.627 12.337 37.0088 15.5002C36.7971 16.5174 36.5318 17.5224 36.214 18.5109L36.2061 18.5163ZM32.6587 25.8972C29.885 24.2915 26.0701 22.5519 23.1215 23.3361L21.5956 24.8829L20.671 25.7848C15.7806 26.0524 11.9047 23.8606 8.86079 21.5029C9.10187 20.5073 9.36944 19.4529 9.72709 18.3985C12.5882 20.8392 16.0852 23.0096 21.5055 22.7072L21.5956 22.6162L23.7997 20.1461C25.9483 18.9712 30.2109 20.3869 34.296 23.0899C33.8178 24.063 33.2697 24.9995 32.6561 25.8918L32.6587 25.8972ZM43.2742 12.2834V12.254C42.943 12.1924 42.6172 12.1015 42.2887 12.0131C41.9019 11.8927 41.5442 11.7723 41.1866 11.6492C40.1 11.2652 39.0382 10.8129 38.0075 10.295C35.3583 8.60904 30.3248 5.68665 26.6795 6.65275C25.8344 7.46631 25.0396 8.29058 24.1892 9.09343C23.3237 9.13783 22.456 9.10738 21.5956 9.00244C19.7446 8.75984 17.9508 8.18813 16.2972 7.31377C17.8593 5.68989 19.6436 4.30024 21.5956 3.18709C23.3796 2.19896 25.2837 1.45043 27.2596 0.960509C25.4034 0.53258 23.4924 0.399858 21.5956 0.567118C10.3814 1.5921 0.93167 12.8561 0.666748 24.2995C1.38204 24.4494 2.00725 24.5671 2.60598 24.7223V24.7544C2.94727 24.8156 3.28508 24.8951 3.61798 24.9926C4.00477 25.1131 4.36506 25.2335 4.67767 25.3512C5.71766 25.7183 6.73348 26.1518 7.71898 26.6492C10.6119 29.1461 14.1619 31.4342 19.7067 31.105L21.5956 29.0283L22.0142 28.5466C23.6487 27.6715 26.4834 28.279 29.5247 29.7803C27.2787 32.0972 24.5779 33.914 21.5956 35.1139C20.6308 35.4853 19.6443 35.7963 18.6417 36.0453C19.6121 36.2738 20.6006 36.4153 21.5956 36.4681C33.9092 37.2174 44.9405 25.0542 45.2081 12.7036C44.5193 12.5832 43.8676 12.436 43.2715 12.2834H43.2742Z" fill="white" fill-opacity="0.25"/>
</g>
<defs>
<clipPath id="clip0_26_571">
<rect width="196" height="36" fill="white" transform="translate(0.666748 0.5)"/>
</clipPath>
</defs>
</svg>
