<svg width="161" height="47" viewBox="0 0 161 47" fill="none" xmlns="http://www.w3.org/2000/svg">
<g clip-path="url(#clip0_25_538)">
<path d="M149.984 6.1674C149.906 7.6453 149.125 9.04109 148.501 9.86214C146.082 12.8179 140.228 14.2137 137.731 12.079C136.638 11.1758 136.716 9.53372 137.652 8.46635C139.291 6.57793 142.804 6.1674 145.224 6.00319C145.691 6.00319 149.282 6.00319 149.906 6.1674C150.063 6.1674 149.906 6.0853 149.984 6.1674ZM160.443 22.5884C158.648 22.2601 156.931 21.439 155.838 20.4537C154.745 19.4684 153.731 18.319 153.184 16.2663C152.482 13.639 153.184 9.78004 153.731 7.07056C153.887 6.1674 154.199 5.26425 154.355 4.36109C153.497 4.19688 152.248 4.11478 151.389 4.03266C148.267 3.78635 145.067 3.70425 141.945 4.03266C137.652 4.44319 134.687 5.59266 132.579 8.05583C131.564 9.2874 130.785 11.34 132.033 13.0642C132.891 14.2137 134.609 15.0348 136.404 15.4453C139.213 16.1022 142.179 15.6095 144.833 14.5421C145.613 14.2137 146.316 13.8032 147.097 13.4748C146.863 14.3779 145.224 16.6768 144.599 17.4158C143.818 18.319 143.038 19.2221 142.101 20.0432C141.399 20.6179 140.697 21.1927 139.838 21.6032C134.531 24.3948 131.564 19.3863 129.458 18.4011C127.116 17.3337 125.087 23.3274 123.136 20.0432C121.964 18.0727 121.106 13.7211 118.297 15.8558C117.828 16.1842 117.36 16.5948 116.891 17.0053C116.267 17.5801 115.487 18.2368 114.863 18.8116C113.691 19.9611 110.96 22.2601 109.555 22.4242C108.775 22.5063 108.306 21.9316 108.228 21.1927C108.151 20.4537 108.384 19.6327 108.697 19.0579C109.399 17.4979 111.116 15.0348 112.287 13.639C112.443 13.4748 112.833 13.0642 112.833 12.9822C112.677 12.8179 112.052 12.4074 111.74 12.3253C110.179 11.5864 109.164 11.8327 107.916 12.8179C105.809 14.4601 102.843 17.7442 102.531 20.6179C102.531 20.9463 102.609 21.1927 102.375 21.3568C99.721 23.7379 94.8819 23.2453 94.0236 18.5653C93.8671 17.4979 93.8671 16.5127 93.6332 15.4453C92.7749 11.5042 90.121 11.9148 87.5453 13.7211C86.7648 14.2137 84.8916 15.7737 84.2673 16.5127C84.1111 16.6768 84.0331 16.8411 83.7989 16.9232C84.1111 16.2663 86.6867 12.2432 87.077 11.5863C87.3892 11.0937 88.0914 10.1906 87.2331 9.78004C86.5307 9.36951 85.5161 9.69793 84.9697 10.0264C84.4234 10.4369 84.1111 11.0937 83.7209 11.6685C83.0185 12.8179 82.3161 14.0495 81.6136 15.2811C80.9892 16.5127 80.2868 17.8263 79.6623 19.1401C79.4282 19.6327 79.3501 19.5506 78.9599 19.7968C78.0234 20.3716 77.0868 20.7822 76.0721 21.1106C74.8234 21.5211 72.7941 22.0958 71.3892 21.8495C69.2819 21.439 70.2965 19.3863 70.9989 18.319C71.3111 17.9084 72.1697 16.9232 71.7794 16.4306C70.5307 14.8706 66.5501 19.4684 62.5697 20.7001C61.3209 21.1106 58.8234 21.6853 58.5111 20.0432C58.1989 18.4011 59.7599 16.9232 60.4623 16.3484C61.3989 15.5274 62.6477 14.8706 64.0526 14.2958C69.5161 11.9968 72.1697 14.5421 73.1062 14.5421C73.4185 14.0495 73.4965 13.1463 73.1843 12.5716C72.9501 12.1611 72.4819 11.7506 71.8575 11.5042C68.6574 10.1906 63.4282 11.8327 60.5404 13.1463C58.277 14.2137 56.716 15.2811 54.9209 16.9232C53.438 18.319 51.4868 20.7001 51.6428 23.0811C48.4428 24.6411 45.2428 23.8201 43.6038 21.5211C41.4184 18.4832 42.6672 15.6095 41.3404 12.4074C40.7941 11.0937 39.8574 10.0264 38.0623 10.0264C35.3307 10.0264 32.1307 12.9822 30.1014 14.7063L28.3062 16.4306C28.1501 16.5948 28.1501 16.6768 27.916 16.759C27.7599 15.6916 27.3696 14.5421 27.1355 13.4748L25.4965 6.98846C25.1843 5.83899 24.7941 4.93583 24.0916 4.36109C22.3746 2.80109 20.2672 4.77161 18.8623 5.92109C17.9258 6.74214 15.8965 9.04109 15.116 10.1085L13.3208 12.3253C11.6038 14.4601 9.88675 17.0053 8.2477 19.2222C7.70136 19.9611 7.15502 20.7822 6.60868 21.6032C5.3599 23.3274 3.17454 26.2011 1.61356 27.5968C1.45746 27.7611 1.22331 27.9253 1.14526 28.0895C2.70624 28.3358 5.43794 28.0074 6.84282 27.5148C8.79405 26.8579 9.57449 26.119 10.5892 24.8053C11.5258 23.5737 12.3062 22.1779 13.1648 20.8642C14.8038 18.2368 16.3648 15.3632 18.1599 12.8179C18.6282 12.1611 19.0965 11.5864 19.6428 11.0116C19.955 10.6832 21.0477 9.53372 21.5941 10.3548C22.2184 11.2579 22.4526 14.6242 22.5307 16.0201C22.6868 17.9906 22.7648 20.0432 23.077 22.0137C23.3111 23.6558 23.9355 26.5295 25.7307 24.8053C26.0428 24.559 26.277 24.2306 26.5111 23.9842C26.7453 23.6558 27.0574 23.4095 27.2916 23.1632C27.5258 22.8348 27.838 22.5884 28.0721 22.3421C29.3208 20.8642 30.6477 19.5506 32.1307 18.319C33.2233 17.4979 35.3307 16.1842 36.5014 17.7442C38.4526 20.2074 38.4526 23.4095 42.0428 25.2158C44.7746 26.6116 48.2087 26.3653 51.0965 25.0516C51.3307 24.8874 51.877 24.5589 52.1111 24.4768C52.3453 24.8053 52.4234 24.8874 52.8135 25.1337C54.9209 26.4474 58.6673 25.4622 60.7746 24.7232C62.2575 24.2306 63.2721 23.5737 64.3648 22.8348C65.0673 22.3421 66.8623 21.1106 67.5648 20.5358C67.5648 20.7822 67.4087 21.3568 67.4087 21.6032C67.3307 22.6706 67.3307 24.0663 68.1111 24.7232C69.5941 25.9548 74.1209 23.5737 75.5258 22.7527L78.7258 20.9463C78.4916 21.6032 78.1014 22.3421 77.8673 22.9989C75.9941 27.5968 74.355 34.2474 73.6526 39.0916C73.5746 39.8306 73.1062 42.2937 73.4965 43.0327C73.6526 43.2789 73.9648 43.6074 74.355 43.5253C75.5258 43.4432 75.9161 40.8979 76.2282 39.6663C77.555 34.4937 79.4282 26.8579 82.3941 22.7527C83.4867 21.2748 86.0623 17.4979 88.8723 17.9084C89.5749 17.9906 90.0427 18.7295 90.2767 19.3042C91.3697 21.2748 91.9158 23.0811 94.101 24.0663C96.521 25.2158 99.6427 24.6411 101.828 23.0811C102.063 22.9168 102.452 22.5884 102.687 22.5063C103.077 22.9168 103.077 23.4916 104.091 24.1484C104.638 24.559 105.418 24.8053 106.199 24.9695C110.57 25.7906 113.925 23.3274 116.891 20.5358C117.282 20.2074 117.594 19.7148 117.984 19.3863C118.063 19.4684 118.531 20.7001 118.999 21.3568C121.263 24.7232 124.151 23.3274 126.96 21.8495C128.833 20.8642 129.379 21.439 131.018 22.5063C131.643 22.8348 132.267 23.1632 132.97 23.4916C136.17 24.8053 139.526 24.1484 142.336 22.7527C143.584 22.0958 144.911 21.2748 145.926 20.4537C146.551 19.879 147.643 19.0579 148.189 18.319L148.813 17.4979C148.891 17.6622 149.36 19.3042 149.516 19.6327C150.218 21.5211 151.389 23.5737 152.872 24.6411C154.277 25.7084 155.291 25.6263 157.009 24.8053C157.945 24.3948 158.804 23.9021 159.663 23.3274C159.818 23.2453 159.897 23.1632 160.052 22.9989C160.131 22.9168 160.209 22.9168 160.287 22.8348L160.443 22.5884ZM46.7258 14.7063C46.6477 13.3927 47.5843 12.2432 48.755 12.1611C50.0819 12.079 51.0965 13.1463 51.1746 14.3779C51.2526 15.6916 50.316 16.759 49.1453 16.9232C47.8965 17.0053 46.8819 15.9379 46.7258 14.7063ZM48.5989 11.6685C47.1941 11.9148 46.1014 13.2284 46.3355 14.9527C46.5697 16.3484 47.8184 17.5801 49.4574 17.2516C50.7843 17.0053 51.955 15.6916 51.7209 13.9674C51.4087 12.6537 50.1599 11.4221 48.5989 11.6685ZM48.3648 13.3927C48.8331 13.3927 49.6135 13.2284 49.6135 13.8853C49.6135 14.4601 48.8331 14.2958 48.3648 14.2958V13.3927ZM47.6623 16.1021H48.3648V14.7884H49.0672L49.5355 16.1021H50.238L49.6916 14.6242C50.5501 14.2958 50.316 13.3106 49.9258 13.0642C49.4574 12.7358 48.2868 12.8179 47.6623 12.8179V16.1021Z" fill="white" fill-opacity="0.25"/>
<path d="M123.682 33.179C123.525 33.179 122.433 33.179 122.355 33.179C122.198 33.261 122.121 34 122.043 34.2463L121.106 38.7621C121.028 39.1726 120.638 40.6505 120.638 40.9789H127.662C127.818 40.6505 129.301 33.3431 129.223 33.179H127.818L126.491 39.6652H125.086C125.009 39.1726 126.335 33.7536 126.335 33.179H125.009C124.931 33.4253 124.384 35.9705 124.306 36.4631C124.228 37.0379 124.072 37.5305 123.994 38.1052C123.916 38.3516 123.916 38.68 123.838 38.9263C123.838 39.0905 123.76 39.6652 123.604 39.6652H122.198L123.682 33.179ZM144.364 39.8295C144.364 39.3369 144.755 38.0231 144.833 37.4484C144.911 36.9557 144.911 36.5452 145.145 36.381C145.458 36.1347 145.847 36.0526 146.004 36.4631C146.238 37.12 145.847 39.1726 145.223 39.7474C144.911 40.1579 144.598 39.9936 144.364 39.8295ZM143.038 36.2169C143.428 36.0526 143.818 36.2989 143.74 36.7916L143.272 39.0905C143.194 39.5831 143.194 39.8295 142.804 39.9116C141.789 40.1579 142.101 38.68 142.179 38.0231C142.258 37.3663 142.491 36.4631 143.038 36.2169ZM145.691 33.5074C144.364 33.5074 144.443 33.4252 144.364 33.7536L144.209 34.4926C144.131 34.821 144.052 35.1495 143.974 35.56C143.662 35.3958 143.506 35.0674 142.882 35.1495C142.491 35.2316 142.101 35.4779 141.867 35.6421C140.852 36.5452 139.682 40.5684 141.711 40.9789C142.335 41.061 142.491 40.8969 142.882 40.6505L142.413 42.7031C143.974 42.7031 143.662 42.9495 143.897 41.6357C143.974 41.3895 144.052 40.8147 144.131 40.6505C144.521 40.8969 144.598 41.061 145.301 40.8969C147.331 40.4863 147.798 36.6274 147.252 35.56C147.097 35.2316 146.784 34.9852 146.316 34.9852C145.847 34.9852 145.535 35.2316 145.223 35.3958L145.691 33.5074ZM85.6719 33.179H84.267L82.7061 41.061H84.1109C84.267 40.4863 84.5012 39.0905 84.6573 38.3516C84.7354 37.7769 84.7354 37.5305 84.9694 37.5305C85.5939 37.5305 86.0621 37.4484 86.0621 38.1874C86.1402 39.1726 85.9061 40.3221 86.4524 40.8147C86.6866 41.061 87.1548 41.1431 87.6231 41.061C87.7012 40.979 88.1697 40.0757 88.0914 39.9116C87.9349 39.7474 87.8575 39.8295 87.7012 39.7474C87.3109 39.5831 87.467 38.9263 87.467 38.3516C87.467 37.2021 87.2329 37.2021 86.8427 36.8736L86.7646 36.7916C87.467 36.6274 87.7012 36.1347 87.9349 35.3958C88.0132 35.1495 88.1697 34.6569 88.3254 34.4926C88.5601 34.0821 88.7941 34.2463 89.1062 34C89.1845 33.7536 89.1062 33.0969 89.028 32.9326C88.5601 32.8505 88.0132 33.0969 87.7012 33.3431C87.389 33.5895 87.2329 34 86.9987 34.4926C86.3743 36.0526 86.5305 36.2169 85.1255 36.2169L85.6719 33.179ZM138.589 36.5452C138.589 36.9558 138.198 38.5979 138.043 39.0084C137.574 40.0757 136.638 40.3221 136.482 39.5831C136.325 38.9263 136.638 37.6126 136.872 37.0379C137.262 36.1347 137.809 35.8063 138.589 36.5452ZM139.447 40.9789C139.447 40.4042 139.291 40.1579 139.291 39.4189C139.37 38.9263 139.447 38.4336 139.525 37.941C139.604 37.3663 140.072 35.4779 140.072 35.1495H138.901L138.823 35.7242C138.433 35.4779 138.277 35.1495 137.652 35.1495C136.325 35.1495 135.545 36.7095 135.233 38.0231C134.998 39.0084 134.998 40.4042 135.701 40.8969C136.091 41.2252 136.638 41.061 137.106 40.8969C137.34 40.8147 137.497 40.7326 137.652 40.5684L138.121 40.1579C138.121 41.3074 138.043 40.9789 139.447 40.9789ZM101.282 35.1495H100.033L98.7845 40.9789H100.033C100.189 40.4042 100.345 39.7474 100.423 39.0905C100.501 38.5157 100.423 38.5158 100.891 38.5158C101.282 38.5158 101.594 38.5158 101.984 38.5158L101.516 40.9789H102.764L104.013 35.1495C102.686 35.1495 102.764 35.0674 102.686 35.3958L102.531 36.2169C102.452 36.6274 102.374 37.0379 102.297 37.3663H100.813L101.282 35.1495ZM108.852 40.9789C108.852 40.4042 108.618 40.0757 108.774 39.4189C108.931 38.2695 109.477 36.4631 109.711 35.1495H108.462C108.306 36.0526 108.072 36.8736 107.916 37.7769C107.76 38.5979 107.447 39.5831 106.823 39.8295C105.652 40.3221 106.277 38.3516 106.433 37.7769C106.589 36.9558 106.901 35.9705 106.979 35.1495H105.731C105.574 35.8884 104.794 39.0905 104.794 39.5831C104.716 40.4863 105.184 41.1431 106.043 40.9789C106.979 40.8147 107.37 40.0757 107.604 39.9116C107.525 41.2252 107.37 40.9789 108.852 40.9789ZM116.345 40.9789C116.267 40.4042 116.111 39.9936 116.189 39.4189C116.345 38.5979 117.047 35.6421 117.125 35.1495H115.877C115.643 36.2169 115.252 38.5158 114.784 39.3369C114.628 39.5831 114.16 40.0757 113.691 39.9116C113.301 39.5831 113.77 38.0231 113.925 37.5305C114.082 36.9558 114.394 35.6421 114.394 35.1495H113.145C112.989 35.56 112.209 39.1726 112.131 39.5831C111.974 41.3074 113.535 41.4716 114.628 40.3221C114.784 40.1579 114.784 40.0757 114.94 39.9936C114.94 40.4042 114.94 40.6505 115.097 40.9789H116.345ZM131.955 35.1495H130.706L129.458 40.9789H130.706L131.252 38.5158C131.721 38.5158 132.033 38.4336 132.189 38.8442C132.345 39.501 132.111 40.4863 132.735 40.8147C132.97 40.9789 133.438 41.061 133.75 40.9789C133.906 40.8147 134.14 40.1579 134.14 39.9116C133.438 39.7474 133.594 39.8295 133.516 38.9263C133.438 38.3516 133.359 38.1052 132.891 37.941C133.125 37.7769 133.359 37.941 133.828 36.9558C134.297 35.9705 134.374 36.2989 134.843 36.1347C134.843 35.8884 134.843 35.3136 134.764 35.0674C133.828 34.9852 133.282 35.4779 133.047 36.1347C132.579 37.2021 132.658 37.4484 131.564 37.3663L131.955 35.1495ZM87.7012 42.7852C88.0914 43.2779 89.3401 43.5242 90.2767 42.7031C91.1349 41.9642 92.1497 39.0084 92.6184 37.7769C92.7741 37.3663 92.9306 36.8736 93.1645 36.4631C93.2427 36.2169 93.6332 35.3958 93.6332 35.2316H92.3845C92.1497 35.8063 91.8375 36.8736 91.6819 37.5305C91.5254 37.941 91.0575 39.501 90.901 39.7474C90.7454 39.0084 90.6671 38.2695 90.5888 37.5305C90.5106 36.9558 90.5106 35.7242 90.3549 35.2316H89.2619L90.1984 40.7326C90.3549 41.3895 89.9645 42.1284 89.3401 42.2105C88.8723 42.2926 88.7158 42.0463 88.3254 41.9642C88.0914 42.0463 87.7793 42.621 87.7012 42.7852ZM96.8332 38.0231C96.9888 37.6947 98.8619 35.56 99.0967 35.1495H97.5349C97.3793 35.4779 97.1454 35.8063 96.9106 36.1347C96.7549 36.381 96.4428 36.8736 96.2862 37.12L95.6619 35.2316H94.3349C94.3349 35.6421 95.3497 37.5305 95.5062 38.1052C95.3497 38.3516 94.5697 39.2547 94.3349 39.5831C94.101 39.8295 93.9454 40.0757 93.7106 40.3221C93.6332 40.4863 93.1645 40.8969 93.1645 41.061H94.6471C94.9601 40.7326 95.8967 39.1726 96.0523 39.0084L96.8332 41.061H98.1601C98.0819 40.8147 97.6132 39.9116 97.5349 39.5831C97.301 39.0905 96.9106 38.4336 96.8332 38.0231ZM149.516 39.9936C149.594 39.5831 149.672 38.9263 149.828 38.5158C149.906 38.3516 149.906 38.3516 149.984 38.2695C151.233 37.941 151.389 39.2547 150.764 39.8295C150.452 40.1579 149.984 40.0757 149.516 39.9936ZM150.531 35.1495H149.282C149.047 36.381 148.735 37.6126 148.501 38.8442C148.423 39.1726 148.345 39.419 148.345 39.7474C148.267 40.0757 148.111 40.4042 148.423 40.5684C148.891 40.8147 149.516 41.061 150.062 41.061C152.794 41.1431 153.106 38.1874 151.935 37.4484C151.389 37.0379 150.843 37.2021 150.14 37.2842L150.531 35.1495ZM155.37 35.1495H154.121C153.964 36.1347 153.731 37.12 153.497 38.0231C153.418 38.5979 152.872 40.4863 152.872 40.9789H154.121L155.37 35.1495Z" fill="white" fill-opacity="0.25"/>
</g>
<defs>
<clipPath id="clip0_25_538">
<rect width="160" height="47" fill="white" transform="translate(0.833252)"/>
</clipPath>
</defs>
</svg>
