<svg width="87" height="86" viewBox="0 0 87 86" fill="none" xmlns="http://www.w3.org/2000/svg">
<rect x="0.5" width="86" height="86" rx="43" fill="#272727"/>
<path d="M55.1667 26.3333H35.9383C35.3532 25.3203 34.5119 24.4789 33.4988 23.8938C32.4857 23.3088 31.3366 23.0005 30.1667 23C26.49 23 23.5 25.99 23.5 29.6667V54.6667C23.5 59.2617 27.2383 63 31.8333 63H55.1667C59.7617 63 63.5 59.2617 63.5 54.6667V34.6667C63.5 30.0717 59.7617 26.3333 55.1667 26.3333ZM59.88 33H51.8333C51.3913 33 50.9674 32.8244 50.6548 32.5118C50.3423 32.1993 50.1667 31.7754 50.1667 31.3333V29.6667H55.1667C57.34 29.6667 59.1917 31.06 59.88 33ZM26.8333 29.6667C26.8333 27.8283 28.3283 26.3333 30.1667 26.3333C32.005 26.3333 33.5 27.8283 33.5 29.6667V49.6667C33.5 51.505 32.005 53 30.1667 53C28.3283 53 26.8333 51.505 26.8333 49.6667V29.6667ZM55.1667 59.6667H31.8333C30.6481 59.6652 29.5019 59.2433 28.5985 58.4761C27.6952 57.7088 27.0933 56.646 26.9 55.4767C27.8667 56.0217 28.98 56.3333 30.1667 56.3333C33.8433 56.3333 36.8333 53.3433 36.8333 49.6667V29.6667H46.8333V31.3333C46.8333 34.09 49.0767 36.3333 51.8333 36.3333H60.1667V54.6667C60.1667 57.4233 57.9233 59.6667 55.1667 59.6667ZM50.1667 41.3333C50.1667 41.7754 49.9911 42.1993 49.6785 42.5118C49.3659 42.8244 48.942 43 48.5 43C48.058 43 47.634 42.8244 47.3215 42.5118C47.0089 42.1993 46.8333 41.7754 46.8333 41.3333C46.8333 40.8913 47.0089 40.4674 47.3215 40.1548C47.634 39.8423 48.058 39.6667 48.5 39.6667C48.942 39.6667 49.3659 39.8423 49.6785 40.1548C49.9911 40.4674 50.1667 40.8913 50.1667 41.3333ZM43.5 41.3333C43.5 41.7754 43.3244 42.1993 43.0118 42.5118C42.6993 42.8244 42.2754 43 41.8333 43C41.3913 43 40.9674 42.8244 40.6548 42.5118C40.3423 42.1993 40.1667 41.7754 40.1667 41.3333C40.1667 40.8913 40.3423 40.4674 40.6548 40.1548C40.9674 39.8423 41.3913 39.6667 41.8333 39.6667C42.2754 39.6667 42.6993 39.8423 43.0118 40.1548C43.3244 40.4674 43.5 40.8913 43.5 41.3333ZM56.8333 41.3333C56.8333 41.7754 56.6577 42.1993 56.3452 42.5118C56.0326 42.8244 55.6087 43 55.1667 43C54.7246 43 54.3007 42.8244 53.9882 42.5118C53.6756 42.1993 53.5 41.7754 53.5 41.3333C53.5 40.8913 53.6756 40.4674 53.9882 40.1548C54.3007 39.8423 54.7246 39.6667 55.1667 39.6667C55.6087 39.6667 56.0326 39.8423 56.3452 40.1548C56.6577 40.4674 56.8333 40.8913 56.8333 41.3333ZM50.1667 48C50.1667 48.442 49.9911 48.8659 49.6785 49.1785C49.3659 49.4911 48.942 49.6667 48.5 49.6667C48.058 49.6667 47.634 49.4911 47.3215 49.1785C47.0089 48.8659 46.8333 48.442 46.8333 48C46.8333 47.558 47.0089 47.134 47.3215 46.8215C47.634 46.5089 48.058 46.3333 48.5 46.3333C48.942 46.3333 49.3659 46.5089 49.6785 46.8215C49.9911 47.134 50.1667 47.558 50.1667 48ZM43.5 48C43.5 48.442 43.3244 48.8659 43.0118 49.1785C42.6993 49.4911 42.2754 49.6667 41.8333 49.6667C41.3913 49.6667 40.9674 49.4911 40.6548 49.1785C40.3423 48.8659 40.1667 48.442 40.1667 48C40.1667 47.558 40.3423 47.134 40.6548 46.8215C40.9674 46.5089 41.3913 46.3333 41.8333 46.3333C42.2754 46.3333 42.6993 46.5089 43.0118 46.8215C43.3244 47.134 43.5 47.558 43.5 48ZM56.8333 48C56.8333 48.442 56.6577 48.8659 56.3452 49.1785C56.0326 49.4911 55.6087 49.6667 55.1667 49.6667C54.7246 49.6667 54.3007 49.4911 53.9882 49.1785C53.6756 48.8659 53.5 48.442 53.5 48C53.5 47.558 53.6756 47.134 53.9882 46.8215C54.3007 46.5089 54.7246 46.3333 55.1667 46.3333C55.6087 46.3333 56.0326 46.5089 56.3452 46.8215C56.6577 47.134 56.8333 47.558 56.8333 48ZM50.1667 54.6667C50.1667 55.1087 49.9911 55.5326 49.6785 55.8452C49.3659 56.1577 48.942 56.3333 48.5 56.3333C48.058 56.3333 47.634 56.1577 47.3215 55.8452C47.0089 55.5326 46.8333 55.1087 46.8333 54.6667C46.8333 54.2246 47.0089 53.8007 47.3215 53.4882C47.634 53.1756 48.058 53 48.5 53C48.942 53 49.3659 53.1756 49.6785 53.4882C49.9911 53.8007 50.1667 54.2246 50.1667 54.6667ZM43.5 54.6667C43.5 55.1087 43.3244 55.5326 43.0118 55.8452C42.6993 56.1577 42.2754 56.3333 41.8333 56.3333C41.3913 56.3333 40.9674 56.1577 40.6548 55.8452C40.3423 55.5326 40.1667 55.1087 40.1667 54.6667C40.1667 54.2246 40.3423 53.8007 40.6548 53.4882C40.9674 53.1756 41.3913 53 41.8333 53C42.2754 53 42.6993 53.1756 43.0118 53.4882C43.3244 53.8007 43.5 54.2246 43.5 54.6667ZM56.8333 54.6667C56.8333 55.1087 56.6577 55.5326 56.3452 55.8452C56.0326 56.1577 55.6087 56.3333 55.1667 56.3333C54.7246 56.3333 54.3007 56.1577 53.9882 55.8452C53.6756 55.5326 53.5 55.1087 53.5 54.6667C53.5 54.2246 53.6756 53.8007 53.9882 53.4882C54.3007 53.1756 54.7246 53 55.1667 53C55.6087 53 56.0326 53.1756 56.3452 53.4882C56.6577 53.8007 56.8333 54.2246 56.8333 54.6667Z" fill="#A2A2A2"/>
</svg>
